<svg width="46" height="48" viewBox="0 0 46 48" fill="none" xmlns="http://www.w3.org/2000/svg">
<path d="M13.159 0.0138041C15.2683 -0.10431 17.5905 0.546579 19.4472 1.54333C20.5423 2.13113 21.6328 3.19008 22.9411 3.20491C24.3286 3.22056 25.5847 2.07757 26.7488 1.43997C29.1832 0.106486 32.2402 -0.303285 34.9431 0.249216C38.2864 0.932548 41.1234 2.95042 43.0018 5.79591C43.3955 6.39227 43.7698 7.01414 44.0726 7.66283C46.107 12.0213 46.4479 18.2202 45.4843 22.8959C45.2773 23.9002 44.9162 24.861 44.5724 25.8231C44.0652 27.2421 43.5024 28.385 42.7876 29.7082C42.5987 30.0578 42.4366 30.4282 42.2327 30.7688C41.9808 31.1897 41.6777 31.5894 41.4045 31.9973C40.8943 32.7592 40.3956 33.5199 39.8252 34.2392C39.1515 35.0888 38.3966 35.8769 37.633 36.6438C37.0492 37.2301 36.4717 37.8262 35.8563 38.3795C34.7688 39.3575 33.5876 40.2603 32.4158 41.1336C31.8276 41.572 31.2657 42.0727 30.6553 42.4768C29.7209 43.1572 28.7877 43.8175 27.825 44.4579C26.6325 45.2511 23.6937 46.9923 22.9403 48C22.5587 47.6161 22.177 47.2289 21.7577 46.886C21.158 46.3958 20.4928 45.9761 19.8488 45.5474C18.7579 44.8349 17.675 44.1105 16.6 43.3742C15.3736 42.5045 14.1713 41.6025 12.9929 40.6682C11.8145 39.734 10.6617 38.7689 9.53457 37.7728C9.26297 37.5284 8.99613 37.2788 8.73405 37.0241C8.47197 36.7694 8.21487 36.5098 7.96275 36.2451C7.71062 35.9805 7.46363 35.7111 7.22179 35.4369C6.97994 35.1627 6.74345 34.884 6.51231 34.6007C6.28112 34.3174 6.05544 34.0297 5.83529 33.7377C5.61513 33.4457 5.40063 33.1495 5.19177 32.8492C4.98298 32.549 4.77997 32.2447 4.58274 31.9366C4.38558 31.6285 4.19436 31.3167 4.00909 31.0012C3.83627 30.7133 3.60948 30.4619 3.44518 30.1687C2.86106 29.1263 2.36035 28.0023 1.90922 26.898C1.74686 26.5006 1.56235 26.113 1.4094 25.7116C1.31301 25.464 1.22151 25.2147 1.13491 24.9634C1.04825 24.7123 0.966602 24.4595 0.889953 24.2051C0.813304 23.9507 0.741658 23.6948 0.675016 23.4376C0.608374 23.1803 0.546844 22.9218 0.490426 22.6621C0.433953 22.4024 0.382592 22.1417 0.336343 21.8799C0.290148 21.6182 0.249119 21.3557 0.213255 21.0923C0.177338 20.8289 0.146613 20.5649 0.121081 20.3003C0.0955496 20.0358 0.0752372 19.7708 0.0601454 19.5054C-0.248994 14.5591 0.571563 8.30141 3.97412 4.45819C6.53113 1.57007 9.34089 0.24294 13.159 0.0138041Z" fill="#9FD6DC"/>
<path d="M20.0267 32.1303C19.8429 29.8604 19.9276 26.2335 21.3207 24.3741C21.6239 23.9693 22.1026 23.6063 22.6143 23.5539C23.0965 23.5045 23.5627 23.661 23.9309 23.9737C25.2107 25.0604 25.5225 27.6026 25.649 29.1869C25.6201 29.7585 25.7013 30.4103 25.6167 30.9687C25.6069 30.5289 25.5703 30.0665 25.6133 29.6294C25.6304 29.4555 25.591 29.2694 25.572 29.0964C25.5349 28.7592 25.5146 28.4226 25.4703 28.0851C25.4342 27.8097 25.3549 27.5164 25.3592 27.2408C25.3617 27.0786 25.2726 26.9602 25.1637 26.8477C24.7047 26.3736 23.98 25.9609 23.3353 25.8207C23.0669 25.7624 23.283 25.7684 22.9568 25.7684C22.9568 25.7684 22.6305 25.8094 22.4674 25.8207L22.3434 25.8369C21.6754 25.9532 20.7838 26.4369 20.3962 27.0073C20.0673 27.4913 20.0041 30.1366 20.0183 30.8558C20.0259 31.2375 20.1514 31.7739 20.0267 32.1303Z" fill="#42A2B2"/>
<path d="M20.0771 32.0594C20.0401 32.2325 20.0854 32.4674 20.1015 32.6438C20.1644 33.3277 20.3425 34.2557 20.0638 34.9033C19.96 35.1441 19.7803 35.3784 19.5267 35.468C19.2336 35.5717 18.83 35.47 18.5633 35.3328C17.896 34.9894 17.3446 34.1974 16.9528 33.5777C15.7809 31.7239 15.1469 29.6836 14.9129 27.5081C14.7652 26.1353 14.6733 24.8139 14.2766 23.4822C13.9495 22.3844 13.34 21.3825 12.8456 20.3571C12.5371 19.7011 12.2795 19.0253 12.0728 18.3298C11.3569 15.9391 11.2337 12.7685 12.4453 10.5175C12.9216 9.6326 13.5927 8.94644 14.4751 8.47283C16.1255 7.587 17.992 7.92275 19.6635 8.56447C20.6359 8.93788 21.4596 9.35157 22.5259 9.38997C24.3958 9.45731 25.3421 8.73993 27.0157 8.24789C28.4863 7.81553 30.0428 7.76768 31.4175 8.53251C32.6917 9.24142 33.4686 10.5016 33.8541 11.8837C34.5796 14.485 34.1436 17.6545 32.9998 20.0681C32.3268 21.4879 31.6303 22.5515 31.2242 24.1333C30.9249 25.2999 30.8528 26.5021 30.7227 27.6953C30.5243 29.5142 30.0134 31.3218 29.1151 32.9203C28.622 33.7977 27.7773 35.216 26.7355 35.4771C26.4961 35.537 26.2443 35.5272 26.0315 35.3918C25.7532 35.2148 25.5951 34.9295 25.5287 34.6116C25.3658 33.8298 25.5806 32.8784 25.6393 32.0835C25.6881 31.4185 25.712 30.7526 25.7109 30.0858C25.7102 29.7763 25.7326 29.4287 25.6546 29.1287C25.5291 27.5513 25.2199 25.0202 23.9502 23.9381C23.585 23.6268 23.1224 23.471 22.6441 23.5202C22.1365 23.5723 21.6616 23.9338 21.3608 24.3368C19.9788 26.1882 19.8947 29.7993 20.0771 32.0594Z" fill="#F8FBFA"/>
<path d="M30.4189 11.0577C30.5365 11.0551 30.647 11.0579 30.759 11.0983C31.2205 11.2646 31.5077 11.7674 31.6983 12.1957C32.4634 13.9151 32.121 15.84 31.469 17.5382C31.3878 17.7493 31.281 17.9856 31.0657 18.0814C30.9619 18.078 30.9456 18.0805 30.8611 18.0216L30.8356 17.8759C30.8459 16.7442 31.1349 15.5196 30.7 14.4296C30.3084 13.4484 29.6376 13.9963 29.122 13.7077C28.9886 13.6331 28.9342 13.4976 28.9101 13.3533C28.8272 12.8572 29.139 12.2055 29.4102 11.8013C29.6644 11.4227 29.9663 11.1467 30.4189 11.0577Z" fill="#D4D8D8"/>
<path d="M16.0671 9.12265C16.3466 9.08698 16.6635 9.11392 16.9432 9.142C18.3952 9.28787 19.4241 9.99896 20.7212 10.5555C21.9141 11.0674 23.1242 11.1192 24.3854 10.8558C24.6267 10.8054 24.8892 10.7638 25.1218 10.6829C25.3425 10.6063 25.5451 10.478 25.7631 10.3912C25.8175 10.3695 25.861 10.3337 25.9156 10.3572C25.4369 10.6772 24.9851 10.9597 24.451 11.1842C22.9354 11.8209 20.8413 12.0148 19.291 11.3833C18.3929 11.0175 17.5979 10.4807 16.5888 10.4474C15.9735 10.427 15.4025 10.6188 14.9517 11.0482C14.2916 11.6767 13.8989 12.5639 13.7342 13.4482C13.3909 15.2916 13.9127 17.147 14.7728 18.7726C15.3205 19.8075 15.8808 20.7124 16.2055 21.8592C16.5568 23.0998 16.4515 24.4835 16.4166 25.7604C16.3736 27.7845 16.7698 30.6071 17.5335 32.4866C17.6217 32.7036 18.383 34.1502 18.3827 34.1928L18.3046 34.2113C18.2542 34.1904 18.2092 34.171 18.1642 34.1397C17.8207 33.9001 17.5388 33.4574 17.2991 33.119C16.1969 31.5636 15.6688 29.4512 15.4735 27.5774C15.3261 26.1631 15.2661 24.7572 14.8354 23.3887C14.4778 22.2523 13.8536 21.2081 13.3315 20.1411C12.7294 18.9101 12.3003 17.5101 12.1289 16.1471C11.8849 14.2044 12.1847 12.143 13.423 10.5648C14.1036 9.69741 14.982 9.25383 16.0671 9.12265Z" fill="#D4D8D8"/>
</svg>
