<svg width="64" height="64" viewBox="0 0 64 64" fill="none" xmlns="http://www.w3.org/2000/svg">
<rect width="64" height="64" rx="10" fill="url(#paint0_linear_188_2214)"/>
<path d="M27 28.25V25.75C27 22.9886 29.2386 20.75 32 20.75C34.7614 20.75 37 22.9886 37 25.75V28.25M35.75 33.25L31.1919 37.8081C30.9479 38.0521 30.5521 38.0521 30.3081 37.8081L28.25 35.75M27.25 43.25H36.75C38.1501 43.25 38.8502 43.25 39.385 42.9775C39.8554 42.7378 40.2378 42.3554 40.4775 41.885C40.75 41.3502 40.75 40.6501 40.75 39.25V32.25C40.75 30.8499 40.75 30.1498 40.4775 29.615C40.2378 29.1446 39.8554 28.7622 39.385 28.5225C38.8502 28.25 38.1501 28.25 36.75 28.25H27.25C25.8499 28.25 25.1498 28.25 24.615 28.5225C24.1446 28.7622 23.7622 29.1446 23.5225 29.615C23.25 30.1498 23.25 30.8499 23.25 32.25V39.25C23.25 40.6501 23.25 41.3502 23.5225 41.885C23.7622 42.3554 24.1446 42.7378 24.615 42.9775C25.1498 43.25 25.8499 43.25 27.25 43.25Z" stroke="white" stroke-width="2" stroke-linecap="round"/>
<defs>
<linearGradient id="paint0_linear_188_2214" x1="16" y1="10.9999" x2="92" y2="117" gradientUnits="userSpaceOnUse">
<stop stop-color="#9FD6DC"/>
<stop offset="1" stop-color="#008B94"/>
</linearGradient>
</defs>
</svg>
