<svg width="64" height="64" viewBox="0 0 64 64" fill="none" xmlns="http://www.w3.org/2000/svg">
<rect width="64" height="64" rx="10" fill="url(#paint0_linear_188_2198)"/>
<path d="M23.25 29.5H30.75M27 25.75L27 33.25M34.5 33.25H39.5M34.5 37H39.5M23.5 42H40.5C41.9001 42 42.6002 42 43.135 41.7275C43.6054 41.4878 43.9878 41.1054 44.2275 40.635C44.5 40.1002 44.5 39.4001 44.5 38V26C44.5 24.5999 44.5 23.8998 44.2275 23.365C43.9878 22.8946 43.6054 22.5122 43.135 22.2725C42.6002 22 41.9001 22 40.5 22H23.5C22.0999 22 21.3998 22 20.865 22.2725C20.3946 22.5122 20.0122 22.8946 19.7725 23.365C19.5 23.8998 19.5 24.5999 19.5 26V38C19.5 39.4001 19.5 40.1002 19.7725 40.635C20.0122 41.1054 20.3946 41.4878 20.865 41.7275C21.3998 42 22.0999 42 23.5 42Z" stroke="white" stroke-width="2" stroke-linecap="round"/>
<defs>
<linearGradient id="paint0_linear_188_2198" x1="16" y1="10.9999" x2="92" y2="117" gradientUnits="userSpaceOnUse">
<stop stop-color="#9FD6DC"/>
<stop offset="1" stop-color="#008B94"/>
</linearGradient>
</defs>
</svg>
