<svg width="64" height="64" viewBox="0 0 64 64" fill="none" xmlns="http://www.w3.org/2000/svg">
<rect width="64" height="64" rx="10" fill="url(#paint0_linear_188_2189)"/>
<path d="M23.48 42.705L23.934 41.814H23.934L23.48 42.705ZM21.295 40.52L20.404 40.9739H20.404L21.295 40.52ZM40.52 21.295L40.9739 20.404V20.404L40.52 21.295ZM42.705 23.48L41.814 23.934V23.934L42.705 23.48ZM23.48 21.295L23.934 22.186V22.186L23.48 21.295ZM21.295 23.48L22.186 23.934H22.186L21.295 23.48ZM42.25 30.75C42.25 31.3023 42.6977 31.75 43.25 31.75C43.8023 31.75 44.25 31.3023 44.25 30.75H42.25ZM30.75 44.25C31.3023 44.25 31.75 43.8023 31.75 43.25C31.75 42.6977 31.3023 42.25 30.75 42.25V44.25ZM27 26C26.4477 26 26 26.4477 26 27C26 27.5523 26.4477 28 27 28V26ZM37 28C37.5523 28 38 27.5523 38 27C38 26.4477 37.5523 26 37 26V28ZM27 31C26.4477 31 26 31.4477 26 32C26 32.5523 26.4477 33 27 33V31ZM37 33C37.5523 33 38 32.5523 38 32C38 31.4477 37.5523 31 37 31V33ZM27 36C26.4477 36 26 36.4477 26 37C26 37.5523 26.4477 38 27 38V36ZM32 38C32.5523 38 33 37.5523 33 37C33 36.4477 32.5523 36 32 36V38ZM34.8165 43.8707L35.7652 44.187H35.7652L34.8165 43.8707ZM35.395 42.1353L34.4463 41.819L34.4463 41.819L35.395 42.1353ZM35.9919 41.1694L36.699 41.8765L36.699 41.8765L35.9919 41.1694ZM41.7567 35.4046L41.0496 34.6975L41.0496 34.6975L41.7567 35.4046ZM44.8454 38.4933L45.5525 39.2004V39.2004L44.8454 38.4933ZM39.0806 44.2581L38.3735 43.551L39.0806 44.2581ZM38.1147 44.855L38.431 45.8037H38.431L38.1147 44.855ZM36.3793 45.4335L36.6955 46.3822H36.6955L36.3793 45.4335ZM38.7639 44.5536L39.3662 45.3519V45.3519L38.7639 44.5536ZM38.5207 44.704L38.076 43.8083V43.8083L38.5207 44.704ZM44.8454 35.4046L44.1383 36.1117V36.1117L44.8454 35.4046ZM45.5894 36.2633L46.4854 35.8192V35.8192L45.5894 36.2633ZM45.5894 37.6347L46.4854 38.0787L45.5894 37.6347ZM42.6153 34.6606L43.0594 35.5566L42.6153 34.6606ZM43.9867 34.6606L43.5427 35.5566L43.5427 35.5566L43.9867 34.6606ZM35.546 41.7293L36.4417 42.174L35.546 41.7293ZM35.6964 41.4861L34.8981 40.8838L35.6964 41.4861ZM34.5287 45.2533L35.4707 44.9174L34.5287 45.2533ZM34.9967 45.7213L34.6608 46.6632L34.9967 45.7213ZM28.75 20.75V21.75H35.25V20.75V19.75H28.75V20.75ZM20.75 35.25H21.75V28.75H20.75H19.75V35.25H20.75ZM28.75 43.25V42.25C27.3334 42.25 26.331 42.2492 25.5474 42.1852C24.7755 42.1221 24.3043 42.0027 23.934 41.814L23.48 42.705L23.0261 43.596C23.7253 43.9523 24.489 44.1054 25.3846 44.1786C26.2685 44.2508 27.3664 44.25 28.75 44.25V43.25ZM20.75 35.25H19.75C19.75 36.6336 19.7492 37.7315 19.8214 38.6154C19.8946 39.511 20.0477 40.2747 20.404 40.9739L21.295 40.52L22.186 40.066C21.9973 39.6957 21.8779 39.2245 21.8148 38.4526C21.7508 37.669 21.75 36.6666 21.75 35.25H20.75ZM23.48 42.705L23.934 41.814C23.1814 41.4305 22.5695 40.8186 22.186 40.066L21.295 40.52L20.404 40.9739C20.9792 42.1029 21.8971 43.0208 23.0261 43.596L23.48 42.705ZM35.25 20.75V21.75C36.6666 21.75 37.669 21.7508 38.4526 21.8148C39.2245 21.8779 39.6957 21.9973 40.066 22.186L40.52 21.295L40.9739 20.404C40.2747 20.0477 39.511 19.8946 38.6154 19.8214C37.7315 19.7492 36.6336 19.75 35.25 19.75V20.75ZM43.25 28.75H44.25C44.25 27.3664 44.2508 26.2685 44.1786 25.3846C44.1054 24.489 43.9523 23.7253 43.596 23.0261L42.705 23.48L41.814 23.934C42.0027 24.3043 42.1221 24.7755 42.1852 25.5474C42.2492 26.331 42.25 27.3334 42.25 28.75H43.25ZM40.52 21.295L40.066 22.186C40.8186 22.5695 41.4305 23.1814 41.814 23.934L42.705 23.48L43.596 23.0261C43.0208 21.8971 42.1029 20.9792 40.9739 20.404L40.52 21.295ZM28.75 20.75V19.75C27.3664 19.75 26.2685 19.7492 25.3846 19.8214C24.489 19.8946 23.7253 20.0477 23.0261 20.404L23.48 21.295L23.934 22.186C24.3043 21.9973 24.7755 21.8779 25.5474 21.8148C26.331 21.7508 27.3334 21.75 28.75 21.75V20.75ZM20.75 28.75H21.75C21.75 27.3334 21.7508 26.331 21.8148 25.5474C21.8779 24.7755 21.9973 24.3043 22.186 23.934L21.295 23.48L20.404 23.0261C20.0477 23.7253 19.8946 24.489 19.8214 25.3846C19.7492 26.2685 19.75 27.3664 19.75 28.75H20.75ZM23.48 21.295L23.0261 20.404C21.8971 20.9792 20.9792 21.8971 20.404 23.0261L21.295 23.48L22.186 23.934C22.5695 23.1814 23.1814 22.5695 23.934 22.186L23.48 21.295ZM43.25 28.75H42.25V30.75H43.25H44.25V28.75H43.25ZM28.75 43.25V44.25H30.75V43.25V42.25H28.75V43.25ZM27 27V28H37V27V26H27V27ZM27 32V33H37V32V31H27V32ZM27 37V38H32V37V36H27V37ZM34.8165 43.8707L35.7652 44.187L36.3437 42.4515L35.395 42.1353L34.4463 41.819L33.8678 43.5545L34.8165 43.8707ZM35.9919 41.1694L36.699 41.8765L42.4638 36.1117L41.7567 35.4046L41.0496 34.6975L35.2848 40.4623L35.9919 41.1694ZM44.8454 38.4933L44.1383 37.7862L38.3735 43.551L39.0806 44.2581L39.7877 44.9652L45.5525 39.2004L44.8454 38.4933ZM38.1147 44.855L37.7985 43.9063L36.063 44.4848L36.3793 45.4335L36.6955 46.3822L38.431 45.8037L38.1147 44.855ZM39.0806 44.2581L38.3735 43.551C38.2008 43.7237 38.1793 43.742 38.1617 43.7553L38.7639 44.5536L39.3662 45.3519C39.5204 45.2356 39.6527 45.1001 39.7877 44.9652L39.0806 44.2581ZM38.1147 44.855L38.431 45.8037C38.612 45.7433 38.7924 45.6855 38.9654 45.5996L38.5207 44.704L38.076 43.8083C38.0563 43.8181 38.0302 43.8291 37.7985 43.9063L38.1147 44.855ZM38.7639 44.5536L38.1617 43.7553C38.1348 43.7756 38.1061 43.7933 38.076 43.8083L38.5207 44.704L38.9654 45.5996C39.1063 45.5296 39.2405 45.4467 39.3662 45.3519L38.7639 44.5536ZM44.8454 35.4046L44.1383 36.1117C44.6164 36.5899 44.6721 36.6643 44.6934 36.7073L45.5894 36.2633L46.4854 35.8192C46.2817 35.408 45.9164 35.0615 45.5525 34.6975L44.8454 35.4046ZM44.8454 38.4933L45.5525 39.2004C45.9164 38.8364 46.2817 38.4899 46.4854 38.0787L45.5894 37.6347L44.6934 37.1906C44.6721 37.2336 44.6164 37.308 44.1383 37.7862L44.8454 38.4933ZM45.5894 36.2633L44.6934 36.7073C44.7689 36.8596 44.7689 37.0383 44.6934 37.1906L45.5894 37.6347L46.4854 38.0787C46.8382 37.3668 46.8382 36.5311 46.4854 35.8192L45.5894 36.2633ZM41.7567 35.4046L42.4638 36.1117C42.9419 35.6336 43.0164 35.5779 43.0594 35.5566L42.6153 34.6606L42.1713 33.7646C41.7601 33.9683 41.4135 34.3336 41.0496 34.6975L41.7567 35.4046ZM44.8454 35.4046L45.5525 34.6975C45.1885 34.3336 44.842 33.9683 44.4308 33.7646L43.9867 34.6606L43.5427 35.5566C43.5857 35.5779 43.6601 35.6336 44.1383 36.1117L44.8454 35.4046ZM42.6153 34.6606L43.0594 35.5566C43.2117 35.4811 43.3904 35.4811 43.5427 35.5566L43.9867 34.6606L44.4308 33.7646C43.7189 33.4118 42.8832 33.4118 42.1713 33.7646L42.6153 34.6606ZM35.395 42.1353L36.3437 42.4515C36.4209 42.2198 36.4319 42.1937 36.4417 42.174L35.546 41.7293L34.6504 41.2846C34.5645 41.4576 34.5067 41.638 34.4463 41.819L35.395 42.1353ZM35.9919 41.1694L35.2848 40.4623C35.1499 40.5973 35.0144 40.7296 34.8981 40.8838L35.6964 41.4861L36.4947 42.0883C36.508 42.0707 36.5263 42.0492 36.699 41.8765L35.9919 41.1694ZM35.546 41.7293L36.4417 42.174C36.4567 42.1439 36.4744 42.1152 36.4947 42.0883L35.6964 41.4861L34.8981 40.8838C34.8033 41.0095 34.7204 41.1437 34.6504 41.2846L35.546 41.7293ZM34.8165 43.8707L33.8678 43.5545C33.7484 43.9128 33.6359 44.2471 33.5713 44.5221C33.5102 44.7823 33.4407 45.1793 33.5868 45.5892L34.5287 45.2533L35.4707 44.9174C35.5274 45.0765 35.476 45.1594 35.5183 44.9796C35.557 44.8147 35.6332 44.5831 35.7652 44.187L34.8165 43.8707ZM36.3793 45.4335L36.063 44.4848C35.6669 44.6168 35.4353 44.693 35.2704 44.7317C35.0906 44.774 35.1735 44.7226 35.3326 44.7793L34.9967 45.7213L34.6608 46.6632C35.0707 46.8093 35.4677 46.7398 35.7279 46.6787C36.0029 46.6141 36.3372 46.5016 36.6955 46.3822L36.3793 45.4335ZM34.5287 45.2533L33.5868 45.5892C33.7655 46.0902 34.1598 46.4845 34.6608 46.6632L34.9967 45.7213L35.3326 44.7793C35.397 44.8023 35.4477 44.853 35.4707 44.9174L34.5287 45.2533Z" fill="white"/>
<defs>
<linearGradient id="paint0_linear_188_2189" x1="16" y1="10.9999" x2="92" y2="117" gradientUnits="userSpaceOnUse">
<stop stop-color="#9FD6DC"/>
<stop offset="1" stop-color="#008B94"/>
</linearGradient>
</defs>
</svg>
