<svg width="64" height="64" viewBox="0 0 64 64" fill="none" xmlns="http://www.w3.org/2000/svg">
<rect width="64" height="64" rx="10" fill="url(#paint0_linear_188_2206)"/>
<path d="M19.7725 34.385L18.8815 34.839V34.839L19.7725 34.385ZM20.865 35.4775L21.319 34.5865L21.319 34.5865L20.865 35.4775ZM40.4775 34.385L41.3685 34.839L41.3685 34.839L40.4775 34.385ZM39.385 35.4775L38.931 34.5865L38.931 34.5865L39.385 35.4775ZM39.385 22.2725L38.931 23.1635L38.931 23.1635L39.385 22.2725ZM40.4775 23.365L41.3685 22.911V22.911L40.4775 23.365ZM20.865 22.2725L21.319 23.1635L20.865 22.2725ZM19.7725 23.365L20.6635 23.819V23.819L19.7725 23.365ZM21.0757 35.5679L21.4112 34.6259H21.4112L21.0757 35.5679ZM23.875 39.5L23.2242 38.7407L23.195 38.7657L23.1679 38.7929L23.875 39.5ZM27.9691 35.9907L28.6199 36.75L28.6199 36.75L27.9691 35.9907ZM21.7827 35.8643L22.4351 35.1064L22.4351 35.1064L21.7827 35.8643ZM21.958 36.1128L21.0252 36.4731L21.0252 36.4731L21.958 36.1128ZM28.3493 35.7641L28.5603 36.7416L28.5603 36.7416L28.3493 35.7641ZM28.1837 35.8253L27.7078 34.9459L27.7078 34.9459L28.1837 35.8253ZM24.5 26C23.9477 26 23.5 26.4477 23.5 27C23.5 27.5523 23.9477 28 24.5 28V26ZM35.75 28C36.3023 28 36.75 27.5523 36.75 27C36.75 26.4477 36.3023 26 35.75 26V28ZM24.5 29.75C23.9477 29.75 23.5 30.1977 23.5 30.75C23.5 31.3023 23.9477 31.75 24.5 31.75V29.75ZM35.75 31.75C36.3023 31.75 36.75 31.3023 36.75 30.75C36.75 30.1977 36.3023 29.75 35.75 29.75V31.75ZM29.5 38.5C28.9477 38.5 28.5 38.9477 28.5 39.5C28.5 40.0523 28.9477 40.5 29.5 40.5V38.5ZM45.5 27C45.5 26.4477 45.0523 26 44.5 26C43.9477 26 43.5 26.4477 43.5 27H45.5ZM23.5 22V23H36.75V22V21H23.5V22ZM40.75 26H39.75V31.75H40.75H41.75V26H40.75ZM19.5 31.75H20.5V26H19.5H18.5V31.75H19.5ZM19.5 31.75H18.5C18.5 32.4336 18.4992 33.0064 18.5374 33.4734C18.5765 33.9521 18.6614 34.4071 18.8815 34.839L19.7725 34.385L20.6635 33.931C20.611 33.8281 20.5597 33.6656 20.5307 33.3106C20.5008 32.9438 20.5 32.4666 20.5 31.75H19.5ZM20.865 35.4775L21.319 34.5865C21.0368 34.4427 20.8073 34.2132 20.6635 33.931L19.7725 34.385L18.8815 34.839C19.217 35.4975 19.7525 36.033 20.411 36.3685L20.865 35.4775ZM40.75 31.75H39.75C39.75 32.4666 39.7492 32.9438 39.7193 33.3106C39.6903 33.6656 39.639 33.8281 39.5865 33.931L40.4775 34.385L41.3685 34.839C41.5886 34.4071 41.6735 33.9521 41.7126 33.4734C41.7508 33.0064 41.75 32.4336 41.75 31.75H40.75ZM36.75 35.75V36.75C37.4336 36.75 38.0064 36.7508 38.4734 36.7126C38.9521 36.6735 39.4071 36.5886 39.839 36.3685L39.385 35.4775L38.931 34.5865C38.8281 34.6389 38.6656 34.6903 38.3106 34.7193C37.9438 34.7492 37.4666 34.75 36.75 34.75V35.75ZM40.4775 34.385L39.5865 33.931C39.4427 34.2132 39.2132 34.4427 38.931 34.5865L39.385 35.4775L39.839 36.3685C40.4975 36.033 41.033 35.4975 41.3685 34.839L40.4775 34.385ZM36.75 22V23C37.4666 23 37.9438 23.0008 38.3106 23.0307C38.6656 23.0597 38.8281 23.111 38.931 23.1635L39.385 22.2725L39.839 21.3815C39.4071 21.1614 38.9521 21.0765 38.4734 21.0374C38.0064 20.9992 37.4336 21 36.75 21V22ZM40.75 26H41.75C41.75 25.3164 41.7508 24.7436 41.7126 24.2766C41.6735 23.7979 41.5886 23.3429 41.3685 22.911L40.4775 23.365L39.5865 23.819C39.639 23.9219 39.6903 24.0844 39.7193 24.4394C39.7492 24.8061 39.75 25.2834 39.75 26H40.75ZM39.385 22.2725L38.931 23.1635C39.2132 23.3073 39.4427 23.5368 39.5865 23.819L40.4775 23.365L41.3685 22.911C41.033 22.2525 40.4975 21.717 39.839 21.3815L39.385 22.2725ZM23.5 22V21C22.8164 21 22.2436 20.9992 21.7766 21.0374C21.2979 21.0765 20.8429 21.1614 20.411 21.3815L20.865 22.2725L21.319 23.1635C21.4219 23.111 21.5844 23.0597 21.9394 23.0307C22.3062 23.0008 22.7834 23 23.5 23V22ZM19.5 26H20.5C20.5 25.2834 20.5008 24.8061 20.5307 24.4394C20.5597 24.0844 20.611 23.9219 20.6635 23.819L19.7725 23.365L18.8815 22.911C18.6614 23.3429 18.5765 23.7979 18.5374 24.2766C18.4992 24.7436 18.5 25.3164 18.5 26H19.5ZM20.865 22.2725L20.411 21.3815C19.7525 21.717 19.217 22.2525 18.8815 22.911L19.7725 23.365L20.6635 23.819C20.8073 23.5368 21.0368 23.3073 21.319 23.1635L20.865 22.2725ZM36.75 35.75V34.75H28.6199V35.75V36.75H36.75V35.75ZM21.0757 35.5679L21.4112 34.6259C21.3765 34.6135 21.3463 34.6004 21.319 34.5865L20.865 35.4775L20.411 36.3685C20.5182 36.4231 20.6278 36.4699 20.7402 36.51L21.0757 35.5679ZM22 36.6668H21V39.5H22H23V36.6668H22ZM23.875 39.5L24.5258 40.2593L28.6199 36.75L27.9691 35.9907L27.3183 35.2315L23.2242 38.7407L23.875 39.5ZM22 39.5H21C21 40.0702 21.2993 40.9415 22.2262 41.1733C23.0823 41.3873 23.9052 40.884 24.5821 40.2071L23.875 39.5L23.1679 38.7929C22.9081 39.0527 22.7303 39.1639 22.638 39.2062C22.5497 39.2467 22.5904 39.2028 22.7113 39.233C22.8419 39.2656 22.9292 39.3509 22.9688 39.4154C23.0013 39.468 23 39.4989 23 39.5H22ZM21.0757 35.5679L20.7402 36.51C20.9553 36.5866 21.0859 36.6333 21.1755 36.6696C21.2182 36.6869 21.2328 36.6944 21.2315 36.6937C21.2299 36.6929 21.2195 36.6874 21.2034 36.6771C21.1875 36.6669 21.1614 36.6489 21.1304 36.6222L21.7827 35.8643L22.4351 35.1064C22.2532 34.9498 22.0384 34.8613 21.9261 34.8158C21.7874 34.7596 21.6085 34.6962 21.4112 34.6259L21.0757 35.5679ZM22 36.6668H23C23 36.5306 23.0004 36.3842 22.993 36.2596C22.9853 36.132 22.9665 35.9483 22.8909 35.7525L21.958 36.1128L21.0252 36.4731C20.9915 36.386 20.9937 36.3308 20.9965 36.3789C20.9978 36.3995 20.9988 36.4311 20.9994 36.4817C21 36.5322 21 36.5909 21 36.6668H22ZM21.7827 35.8643L21.1304 36.6222C21.1533 36.6419 21.115 36.6124 21.0721 36.5516C21.0293 36.4909 21.0143 36.4449 21.0252 36.4731L21.958 36.1128L22.8909 35.7525C22.8561 35.6624 22.8015 35.5335 22.7064 35.3988C22.6114 35.264 22.5083 35.1694 22.4351 35.1064L21.7827 35.8643ZM28.6199 35.75V34.75C28.5253 34.75 28.332 34.7448 28.1383 34.7866L28.3493 35.7641L28.5603 36.7416C28.5404 36.7459 28.5233 36.7484 28.5108 36.7498C28.4994 36.751 28.4942 36.7511 28.4992 36.7509C28.5046 36.7507 28.5157 36.7504 28.5373 36.7502C28.559 36.75 28.5845 36.75 28.6199 36.75V35.75ZM27.9691 35.9907L28.6199 36.75C28.6468 36.727 28.6662 36.7104 28.6828 36.6964C28.6993 36.6825 28.7079 36.6755 28.7122 36.6721C28.7161 36.669 28.7121 36.6724 28.7026 36.6788C28.6923 36.6858 28.6776 36.6951 28.6597 36.7048L28.1837 35.8253L27.7078 34.9459C27.5336 35.0401 27.3902 35.1699 27.3183 35.2315L27.9691 35.9907ZM28.3493 35.7641L28.1383 34.7866C27.988 34.819 27.843 34.8727 27.7078 34.9459L28.1837 35.8253L28.6597 36.7048C28.6285 36.7217 28.595 36.7341 28.5603 36.7416L28.3493 35.7641ZM24.5 27V28H35.75V27V26H24.5V27ZM24.5 30.75V31.75H35.75V30.75V29.75H24.5V30.75ZM29.5 39.5V40.5H42V39.5V38.5H29.5V39.5ZM44.5 37H45.5V27H44.5H43.5V37H44.5ZM42 39.5V40.5C43.933 40.5 45.5 38.933 45.5 37H44.5H43.5C43.5 37.8284 42.8284 38.5 42 38.5V39.5Z" fill="white"/>
<defs>
<linearGradient id="paint0_linear_188_2206" x1="16" y1="10.9999" x2="92" y2="117" gradientUnits="userSpaceOnUse">
<stop stop-color="#9FD6DC"/>
<stop offset="1" stop-color="#008B94"/>
</linearGradient>
</defs>
</svg>
