<svg width="64" height="64" viewBox="0 0 64 64" fill="none" xmlns="http://www.w3.org/2000/svg">
<rect width="64" height="64" rx="10" fill="url(#paint0_linear_188_2173)"/>
<path d="M32 30.75L27.9793 34.3962C27.8268 34.5346 27.5795 34.5346 27.4269 34.3962L25.75 32.8755M33.25 38.25H38.25M27 27V20.75M37 27V20.75M24.75 23.25H39.25C40.6501 23.25 41.3502 23.25 41.885 23.5225C42.3554 23.7622 42.7378 24.1446 42.9775 24.615C43.25 25.1498 43.25 25.8499 43.25 27.25V39.25C43.25 40.6501 43.25 41.3502 42.9775 41.885C42.7378 42.3554 42.3554 42.7378 41.885 42.9775C41.3502 43.25 40.6501 43.25 39.25 43.25H24.75C23.3499 43.25 22.6498 43.25 22.115 42.9775C21.6446 42.7378 21.2622 42.3554 21.0225 41.885C20.75 41.3502 20.75 40.6501 20.75 39.25V27.25C20.75 25.8499 20.75 25.1498 21.0225 24.615C21.2622 24.1446 21.6446 23.7622 22.115 23.5225C22.6498 23.25 23.3499 23.25 24.75 23.25Z" stroke="white" stroke-width="2" stroke-linecap="round"/>
<defs>
<linearGradient id="paint0_linear_188_2173" x1="16" y1="10.9999" x2="92" y2="117" gradientUnits="userSpaceOnUse">
<stop stop-color="#9FD6DC"/>
<stop offset="1" stop-color="#008B94"/>
</linearGradient>
</defs>
</svg>
