<svg width="216" height="64" viewBox="0 0 216 64" fill="none" xmlns="http://www.w3.org/2000/svg">
<g clip-path="url(#clip0_188_2341)">
<path d="M208 0H8C3.58172 0 0 3.58172 0 8V56C0 60.4183 3.58172 64 8 64H208C212.418 64 216 60.4183 216 56V8C216 3.58172 212.418 0 208 0Z" fill="white"/>
<path d="M208 1.28C209.782 1.28 211.492 1.988 212.752 3.24824C214.012 4.50849 214.72 6.21775 214.72 8V56C214.72 57.7823 214.012 59.4915 212.752 60.7518C211.492 62.012 209.782 62.72 208 62.72H8C6.21775 62.72 4.50849 62.012 3.24824 60.7518C1.988 59.4915 1.28 57.7823 1.28 56V8C1.28 6.21775 1.988 4.50849 3.24824 3.24824C4.50849 1.988 6.21775 1.28 8 1.28H208ZM208 0H8C5.87827 0 3.84344 0.842855 2.34315 2.34315C0.842855 3.84344 0 5.87827 0 8V56C0 58.1217 0.842855 60.1566 2.34315 61.6569C3.84344 63.1571 5.87827 64 8 64H208C210.122 64 212.157 63.1571 213.657 61.6569C215.157 60.1566 216 58.1217 216 56V8C216 5.87827 215.157 3.84344 213.657 2.34315C212.157 0.842855 210.122 0 208 0Z" fill="#23304C"/>
<path d="M51.3809 30.9008C51.3366 25.9874 55.404 23.597 55.59 23.4857C53.2865 20.1272 49.7161 19.6684 48.4615 19.6318C45.4628 19.3162 42.5541 21.4261 41.0265 21.4261C39.4685 21.4261 37.1162 19.6623 34.581 19.7141C31.3186 19.7644 28.2665 21.6533 26.5926 24.5864C23.1382 30.5669 25.7145 39.3556 29.0242 44.1898C30.6798 46.5573 32.6144 49.2008 35.1466 49.1078C37.6239 49.0057 38.5492 47.5284 41.5387 47.5284C44.5008 47.5284 45.3698 49.1078 47.9523 49.0483C50.611 49.0057 52.2849 46.6701 53.8825 44.2813C55.7958 41.5677 56.5641 38.8952 56.5946 38.758C56.5321 38.7367 51.4312 36.7899 51.3809 30.9008Z" fill="#23304C"/>
<path d="M46.5027 16.4514C47.8351 14.7851 48.7468 12.5182 48.4937 10.2178C46.5652 10.3031 44.1535 11.5517 42.7647 13.1814C41.536 14.6175 40.4383 16.9713 40.7219 19.1848C42.8882 19.3464 45.1124 18.0918 46.5027 16.4514Z" fill="#23304C"/>
<path d="M87.2319 48.7674H83.7698L81.8733 42.8082H75.2814L73.4749 48.7674H70.1042L76.6352 28.4795H80.669L87.2319 48.7674ZM81.3016 40.308L79.5866 35.0104C79.4052 34.4692 79.0652 33.1947 78.5636 31.1885H78.5027C78.303 32.0514 77.9813 33.3258 77.5392 35.0104L75.8546 40.308H81.3016Z" fill="#23304C"/>
<path d="M104.027 41.2728C104.027 43.7608 103.354 45.7274 102.01 47.1711C100.806 48.4562 99.31 49.098 97.5248 49.098C95.5979 49.098 94.2136 48.4059 93.3706 47.0217H93.3096V54.728H90.0594V38.9541C90.0594 37.39 90.0182 35.7847 89.939 34.1382H92.7974L92.9788 36.457H93.0398C94.1237 34.7099 95.7686 33.8379 97.9761 33.8379C99.7018 33.8379 101.142 34.5193 102.295 35.8838C103.451 37.2497 104.027 39.0455 104.027 41.2728ZM100.716 41.3917C100.716 39.9679 100.395 38.794 99.7521 37.8702C99.0493 36.9067 98.1057 36.425 96.9226 36.425C96.1208 36.425 95.3921 36.6933 94.7411 37.2223C94.0886 37.7558 93.6618 38.4525 93.4621 39.3154C93.3614 39.7178 93.3111 40.0471 93.3111 40.3063V42.7455C93.3111 43.8096 93.6374 44.7075 94.2899 45.4408C94.9423 46.1741 95.79 46.5399 96.8327 46.5399C98.0569 46.5399 99.0097 46.0673 99.6911 45.1252C100.374 44.1816 100.716 42.9376 100.716 41.3917Z" fill="#23304C"/>
<path d="M120.853 41.2728C120.853 43.7608 120.18 45.7274 118.834 47.1711C117.631 48.4562 116.136 49.098 114.351 49.098C112.424 49.098 111.04 48.4059 110.198 47.0217H110.137V54.728H106.887V38.9541C106.887 37.39 106.846 35.7847 106.766 34.1382H109.625L109.806 36.457H109.867C110.95 34.7099 112.594 33.8379 114.803 33.8379C116.528 33.8379 117.968 34.5193 119.124 35.8838C120.275 37.2497 120.853 39.0455 120.853 41.2728ZM117.541 41.3917C117.541 39.9679 117.22 38.794 116.576 37.8702C115.874 36.9067 114.933 36.425 113.749 36.425C112.945 36.425 112.218 36.6933 111.565 37.2223C110.913 37.7558 110.488 38.4525 110.288 39.3154C110.189 39.7178 110.137 40.0471 110.137 40.3063V42.7455C110.137 43.8096 110.463 44.7075 111.113 45.4408C111.765 46.1725 112.613 46.5399 113.659 46.5399C114.883 46.5399 115.836 46.0673 116.517 45.1252C117.2 44.1816 117.541 42.9376 117.541 41.3917Z" fill="#23304C"/>
<path d="M139.665 43.0779C139.665 44.8036 139.066 46.2077 137.863 47.2916C136.542 48.4761 134.702 49.0676 132.337 49.0676C130.154 49.0676 128.404 48.6469 127.079 47.8038L127.832 45.0948C129.259 45.9577 130.825 46.3906 132.531 46.3906C133.755 46.3906 134.708 46.1132 135.392 45.5613C136.074 45.0094 136.414 44.2685 136.414 43.3447C136.414 42.5215 136.133 41.8278 135.571 41.2653C135.011 40.7028 134.077 40.1799 132.772 39.6966C129.219 38.3718 127.445 36.4311 127.445 33.8791C127.445 32.2114 128.067 30.8439 129.312 29.7798C130.553 28.7142 132.209 28.1821 134.279 28.1821C136.125 28.1821 137.659 28.5038 138.883 29.1456L138.071 31.7952C136.927 31.1732 135.635 30.8622 134.188 30.8622C133.044 30.8622 132.151 31.1442 131.511 31.7052C130.97 32.2068 130.698 32.8181 130.698 33.5422C130.698 34.3441 131.008 35.0073 131.63 35.5286C132.171 36.0104 133.154 36.5318 134.581 37.0943C136.327 37.7971 137.609 38.6188 138.434 39.5609C139.255 40.5 139.665 41.6754 139.665 43.0779Z" fill="#23304C"/>
<path d="M150.411 36.5774H146.828V43.68C146.828 45.4865 147.459 46.389 148.725 46.389C149.306 46.389 149.787 46.3387 150.168 46.2381L150.258 48.7062C149.618 48.9456 148.775 49.066 147.731 49.066C146.447 49.066 145.444 48.6742 144.72 47.8922C143.999 47.1086 143.636 45.7945 143.636 43.9483V36.5744H141.502V34.1352H143.636V31.4566L146.828 30.4932V34.1352H150.411V36.5774Z" fill="#23304C"/>
<path d="M166.576 41.3327C166.576 43.5813 165.932 45.4275 164.649 46.8712C163.302 48.3576 161.516 49.0985 159.288 49.0985C157.142 49.0985 155.433 48.3865 154.159 46.9627C152.884 45.5388 152.247 43.7414 152.247 41.5751C152.247 39.3082 152.902 37.4514 154.218 36.0077C155.531 34.5625 157.302 33.8398 159.529 33.8398C161.676 33.8398 163.403 34.5518 164.706 35.9772C165.954 37.3599 166.576 39.1451 166.576 41.3327ZM163.203 41.4379C163.203 40.0887 162.915 38.9316 162.331 37.9666C161.65 36.7989 160.676 36.2165 159.413 36.2165C158.107 36.2165 157.115 36.8004 156.433 37.9666C155.849 38.9332 155.561 40.1085 155.561 41.4989C155.561 42.8481 155.849 44.0051 156.433 44.9686C157.136 46.1364 158.118 46.7187 159.384 46.7187C160.625 46.7187 161.6 46.1242 162.302 44.9381C162.901 43.9548 163.203 42.7856 163.203 41.4379Z" fill="#23304C"/>
<path d="M177.14 36.9966C176.818 36.9372 176.475 36.9067 176.116 36.9067C174.972 36.9067 174.088 37.3381 173.466 38.2025C172.925 38.9647 172.653 39.9282 172.653 41.0914V48.7672H169.405L169.435 38.7452C169.435 37.0591 169.394 35.524 169.313 34.1397H172.144L172.263 36.9387H172.353C172.696 35.9768 173.237 35.2023 173.978 34.6215C174.702 34.0986 175.484 33.8379 176.327 33.8379C176.628 33.8379 176.899 33.8592 177.14 33.8973V36.9966Z" fill="#23304C"/>
<path d="M191.676 40.7607C191.676 41.3431 191.638 41.8339 191.557 42.2349H181.807C181.845 43.6801 182.316 44.7854 183.222 45.5476C184.043 46.229 185.106 46.5705 186.411 46.5705C187.854 46.5705 189.172 46.3403 190.356 45.8784L190.865 48.1347C189.481 48.7384 187.847 49.0387 185.961 49.0387C183.693 49.0387 181.912 48.371 180.616 47.037C179.323 45.7031 178.676 43.9118 178.676 41.6647C178.676 39.4588 179.278 37.6218 180.484 36.1567C181.746 34.5926 183.452 33.8105 185.598 33.8105C187.707 33.8105 189.303 34.5926 190.387 36.1567C191.245 37.3992 191.676 38.9359 191.676 40.7607ZM188.577 39.9177C188.598 38.9542 188.387 38.1218 187.946 37.419C187.383 36.515 186.519 36.0637 185.356 36.0637C184.293 36.0637 183.429 36.5043 182.769 37.3885C182.228 38.0913 181.906 38.9344 181.807 39.9161H188.577V39.9177Z" fill="#23304C"/>
<path d="M81.7565 23.5216H80.0658V20.9997H73.3103V23.5216H71.5915L71.5352 19.5767H72.3593C72.7679 19.1823 73.0943 18.6093 73.3385 17.8579C73.5827 17.1018 73.74 16.2471 73.8105 15.2938L74.0782 10.7432H80.5448V19.5767H81.848L81.7565 23.5216ZM74.374 19.5767H78.7697V12.1802H75.7758L75.6068 15.0684C75.48 16.9985 75.0691 18.5013 74.374 19.5767Z" fill="#23304C"/>
<path d="M83.4217 17.1183C83.4217 16.3716 83.5697 15.7 83.8655 15.1036C84.1614 14.5025 84.577 14.0423 85.1124 13.7229C85.6477 13.3989 86.2629 13.2369 86.958 13.2369C87.9865 13.2369 88.82 13.5679 89.4587 14.2301C90.1021 14.8923 90.4496 15.7705 90.5013 16.8647L90.5083 17.2662C90.5083 18.0176 90.3627 18.6892 90.0716 19.2809C89.7851 19.8726 89.3718 20.3305 88.8318 20.6545C88.2964 20.9786 87.6765 21.1406 86.9721 21.1406C85.8966 21.1406 85.0349 20.7837 84.3868 20.0698C83.7434 19.3513 83.4217 18.3956 83.4217 17.2028V17.1183ZM85.1335 17.2662C85.1335 18.0505 85.2955 18.6657 85.6196 19.1118C85.9436 19.5533 86.3944 19.774 86.9721 19.774C87.5497 19.774 87.9982 19.5486 88.3175 19.0977C88.6416 18.6469 88.8036 17.9871 88.8036 17.1183C88.8036 16.3481 88.6369 15.7376 88.3034 15.2867C87.9747 14.8359 87.5262 14.6105 86.958 14.6105C86.3991 14.6105 85.9553 14.8336 85.6266 15.2797C85.2979 15.7211 85.1335 16.3833 85.1335 17.2662Z" fill="#23304C"/>
<path d="M95.8085 19.774C96.2358 19.774 96.5904 19.6495 96.8722 19.4006C97.1539 19.1517 97.3042 18.8441 97.323 18.4778H98.9361C98.9173 18.9521 98.7694 19.3959 98.4923 19.8092C98.2153 20.2178 97.8396 20.5418 97.3653 20.7813C96.8909 21.0208 96.379 21.1406 95.8296 21.1406C94.7636 21.1406 93.9182 20.7954 93.2936 20.1051C92.669 19.4147 92.3567 18.4614 92.3567 17.2451V17.069C92.3567 15.909 92.6667 14.9815 93.2866 14.2865C93.9065 13.5867 94.7518 13.2369 95.8225 13.2369C96.7289 13.2369 97.4662 13.5022 98.0345 14.0329C98.6074 14.5588 98.908 15.2515 98.9361 16.1109H97.323C97.3042 15.6742 97.1539 15.3149 96.8722 15.0332C96.5951 14.7514 96.2405 14.6105 95.8085 14.6105C95.2543 14.6105 94.827 14.8124 94.5264 15.2163C94.2258 15.6155 94.0732 16.2236 94.0685 17.0408V17.3155C94.0685 18.142 94.2164 18.7596 94.5123 19.1682C94.8129 19.572 95.2449 19.774 95.8085 19.774Z" fill="#23304C"/>
<path d="M106.948 14.7373H104.476V20.9997H102.764V14.7373H100.32V13.3777H106.948V14.7373Z" fill="#23304C"/>
<path d="M111.565 18.5483L113.115 13.3777H114.939L111.91 22.155C111.445 23.437 110.656 24.0781 109.543 24.0781C109.295 24.0781 109.02 24.0358 108.719 23.9513V22.6269L109.043 22.6481C109.475 22.6481 109.799 22.5682 110.015 22.4086C110.236 22.2536 110.41 21.9906 110.537 21.6196L110.783 20.9645L108.106 13.3777H109.952L111.565 18.5483Z" fill="#23304C"/>
<path d="M123.114 20.9997H121.402V14.7584H118.429V20.9997H116.717V13.3777H123.114V20.9997Z" fill="#23304C"/>
<path d="M132.112 20.9997H130.4V17.9213H127.435V20.9997H125.723V13.3777H127.435V16.5547H130.4V13.3777H132.112V20.9997Z" fill="#23304C"/>
<path d="M134.341 17.1183C134.341 16.3716 134.489 15.7 134.785 15.1036C135.081 14.5025 135.496 14.0423 136.032 13.7229C136.567 13.3989 137.182 13.2369 137.877 13.2369C138.906 13.2369 139.739 13.5679 140.378 14.2301C141.021 14.8923 141.369 15.7705 141.42 16.8647L141.427 17.2662C141.427 18.0176 141.282 18.6892 140.991 19.2809C140.704 19.8726 140.291 20.3305 139.751 20.6545C139.216 20.9786 138.596 21.1406 137.891 21.1406C136.816 21.1406 135.954 20.7837 135.306 20.0698C134.663 19.3513 134.341 18.3956 134.341 17.2028V17.1183ZM136.053 17.2662C136.053 18.0505 136.215 18.6657 136.539 19.1118C136.863 19.5533 137.314 19.774 137.891 19.774C138.469 19.774 138.917 19.5486 139.237 19.0977C139.561 18.6469 139.723 17.9871 139.723 17.1183C139.723 16.3481 139.556 15.7376 139.223 15.2867C138.894 14.8359 138.445 14.6105 137.877 14.6105C137.318 14.6105 136.874 14.8336 136.546 15.2797C136.217 15.7211 136.053 16.3833 136.053 17.2662Z" fill="#23304C"/>
<path d="M148.041 20.9997V13.3777H151.133C152.176 13.3777 152.969 13.5609 153.514 13.9272C154.059 14.2888 154.331 14.8101 154.331 15.491C154.331 15.8432 154.221 16.1602 154 16.442C153.784 16.7191 153.462 16.9328 153.035 17.083C153.533 17.1864 153.927 17.3953 154.219 17.71C154.51 18.0246 154.655 18.3956 154.655 18.823C154.655 19.5321 154.392 20.0722 153.866 20.4432C153.345 20.8142 152.594 20.9997 151.612 20.9997H148.041ZM149.752 17.7523V19.6472H151.626C152.504 19.6472 152.943 19.3325 152.943 18.7032C152.943 18.0693 152.497 17.7523 151.605 17.7523H149.752ZM149.752 16.5265H151.161C152.133 16.5265 152.619 16.2401 152.619 15.6671C152.619 15.066 152.159 14.7561 151.239 14.7373H149.752V16.5265Z" fill="#23304C"/>
</g>
<defs>
<clipPath id="clip0_188_2341">
<rect width="216" height="64" fill="white"/>
</clipPath>
</defs>
</svg>
