<svg width="216" height="64" viewBox="0 0 216 64" fill="none" xmlns="http://www.w3.org/2000/svg">
<g clip-path="url(#clip0_188_2338)">
<path d="M208 0H8C3.58172 0 0 3.58172 0 8V56C0 60.4183 3.58172 64 8 64H208C212.418 64 216 60.4183 216 56V8C216 3.58172 212.418 0 208 0Z" fill="white"/>
<path d="M208 1.28C209.782 1.28 211.492 1.988 212.752 3.24824C214.012 4.50849 214.72 6.21775 214.72 8V56C214.72 57.7823 214.012 59.4915 212.752 60.7518C211.492 62.012 209.782 62.72 208 62.72H8C6.21775 62.72 4.50849 62.012 3.24824 60.7518C1.988 59.4915 1.28 57.7823 1.28 56V8C1.28 6.21775 1.988 4.50849 3.24824 3.24824C4.50849 1.988 6.21775 1.28 8 1.28H208ZM208 0H8C5.87827 0 3.84344 0.842855 2.34315 2.34315C0.842855 3.84344 0 5.87827 0 8V56C0 58.1217 0.842855 60.1566 2.34315 61.6569C3.84344 63.1571 5.87827 64 8 64H208C210.122 64 212.157 63.1571 213.657 61.6569C215.157 60.1566 216 58.1217 216 56V8C216 5.87827 215.157 3.84344 213.657 2.34315C212.157 0.842855 210.122 0 208 0Z" fill="#23304C"/>
<path d="M41.6649 34.5718H21.93C20.5456 34.5718 19.4263 35.6911 19.4263 37.0755C19.4263 38.4598 20.5456 39.5791 21.93 39.5791H44.6693C44.6693 39.5791 45.8475 38.4009 44.5809 36.4864C43.2849 34.5718 41.6649 34.5718 41.6649 34.5718Z" fill="#23304C"/>
<path d="M40.6634 13.5114L28.4101 34.719C27.7327 35.9267 28.1156 37.4584 29.3232 38.1358C30.5309 38.8133 32.0626 38.4304 32.74 37.2227L44.9933 16.0151C45.6708 14.8074 45.2879 13.2757 44.0802 12.5983C42.8726 11.8914 41.3409 12.3037 40.6634 13.5114Z" fill="#23304C"/>
<path d="M55.656 43.8208L43.0787 21.9946C43.0787 21.9946 41.2524 23.4085 41.2524 26.2067C41.2524 29.0049 42.4012 30.8901 42.4012 30.8901L51.3261 46.354C52.0035 47.5616 53.5352 47.974 54.7429 47.2671C55.9211 46.5602 56.3334 45.0285 55.656 43.8208Z" fill="#23304C"/>
<path d="M56.9225 34.5718H49.9417C48.5573 34.5718 47.438 35.6911 47.438 37.0755C47.438 38.4598 48.5573 39.5791 49.9417 39.5791H56.9225C58.3069 39.5791 59.4262 38.4598 59.4262 37.0755C59.4262 35.7205 58.3069 34.5718 56.9225 34.5718Z" fill="#23304C"/>
<path d="M40.8106 18.1066L38.1596 13.4821C37.4822 12.3039 35.921 11.8915 34.7428 12.569C33.5646 13.2465 33.1523 14.8076 33.8297 15.9858L36.4807 20.6102C37.1582 21.7884 38.7193 22.2008 39.8975 21.5233C41.0757 20.8459 41.4881 19.3142 40.8106 18.1066Z" fill="#23304C"/>
<path d="M23.1672 43.7913L24.7578 41.052C24.7578 41.052 25.1407 40.2861 26.6429 40.2861C28.2335 40.2861 29.7652 41.6116 29.883 42.1123L27.4971 46.295C26.8196 47.5026 25.288 47.915 24.0803 47.2081C22.8727 46.5306 22.4897 44.9989 23.1672 43.7913Z" fill="#23304C"/>
<path d="M87.2317 48.7679H83.7695L81.8731 42.8087H75.2812L73.4746 48.7679H70.104L76.6349 28.48H80.6687L87.2317 48.7679ZM81.3014 40.3085L79.5863 35.0109C79.4049 34.4697 79.065 33.1952 78.5634 31.189H78.5024C78.3027 32.0519 77.981 33.3263 77.5389 35.0109L75.8544 40.3085H81.3014Z" fill="#23304C"/>
<path d="M104.027 41.2733C104.027 43.7613 103.354 45.7279 102.01 47.1716C100.805 48.4567 99.3098 49.0985 97.5246 49.0985C95.5976 49.0985 94.2134 48.4064 93.3703 47.0222H93.3094V54.7285H90.0592V38.9546C90.0592 37.3904 90.018 35.7852 89.9387 34.1387H92.7971L92.9786 36.4575H93.0395C94.1234 34.7104 95.7684 33.8384 97.9758 33.8384C99.7016 33.8384 101.142 34.5198 102.295 35.8842C103.45 37.2502 104.027 39.046 104.027 41.2733ZM100.715 41.3922C100.715 39.9684 100.395 38.7945 99.7519 37.8707C99.0491 36.9072 98.1054 36.4254 96.9224 36.4254C96.1205 36.4254 95.3918 36.6937 94.7409 37.2227C94.0884 37.7563 93.6615 38.453 93.4618 39.3159C93.3612 39.7183 93.3109 40.0476 93.3109 40.3068V42.746C93.3109 43.8101 93.6371 44.708 94.2896 45.4413C94.9421 46.1746 95.7897 46.5404 96.8325 46.5404C98.0566 46.5404 99.0094 46.0678 99.6909 45.1257C100.374 44.182 100.715 42.9381 100.715 41.3922Z" fill="#23304C"/>
<path d="M120.853 41.2733C120.853 43.7613 120.18 45.7279 118.834 47.1716C117.631 48.4567 116.136 49.0985 114.351 49.0985C112.424 49.0985 111.04 48.4064 110.198 47.0222H110.137V54.7285H106.887V38.9546C106.887 37.3904 106.846 35.7852 106.766 34.1387H109.625L109.806 36.4575H109.867C110.95 34.7104 112.594 33.8384 114.803 33.8384C116.528 33.8384 117.968 34.5198 119.124 35.8842C120.275 37.2502 120.853 39.046 120.853 41.2733ZM117.541 41.3922C117.541 39.9684 117.22 38.7945 116.576 37.8707C115.874 36.9072 114.933 36.4254 113.749 36.4254C112.945 36.4254 112.218 36.6937 111.565 37.2227C110.913 37.7563 110.488 38.453 110.288 39.3159C110.189 39.7183 110.137 40.0476 110.137 40.3068V42.746C110.137 43.8101 110.463 44.708 111.113 45.4413C111.765 46.173 112.613 46.5404 113.659 46.5404C114.883 46.5404 115.836 46.0678 116.517 45.1257C117.2 44.182 117.541 42.9381 117.541 41.3922Z" fill="#23304C"/>
<path d="M139.665 43.0784C139.665 44.8041 139.066 46.2082 137.863 47.2921C136.542 48.4766 134.702 49.0681 132.337 49.0681C130.154 49.0681 128.404 48.6474 127.079 47.8043L127.832 45.0953C129.259 45.9582 130.825 46.3911 132.531 46.3911C133.755 46.3911 134.708 46.1137 135.392 45.5618C136.074 45.0099 136.414 44.269 136.414 43.3452C136.414 42.522 136.133 41.8283 135.571 41.2658C135.011 40.7033 134.077 40.1804 132.772 39.6971C129.219 38.3723 127.445 36.4316 127.445 33.8796C127.445 32.2118 128.067 30.8444 129.312 29.7803C130.553 28.7147 132.209 28.1826 134.279 28.1826C136.125 28.1826 137.659 28.5043 138.883 29.1461L138.071 31.7957C136.927 31.1737 135.635 30.8627 134.188 30.8627C133.044 30.8627 132.151 31.1447 131.511 31.7057C130.97 32.2073 130.698 32.8186 130.698 33.5427C130.698 34.3446 131.008 35.0078 131.63 35.5291C132.171 36.0109 133.154 36.5322 134.581 37.0948C136.327 37.7976 137.609 38.6193 138.434 39.5614C139.255 40.5005 139.665 41.6759 139.665 43.0784Z" fill="#23304C"/>
<path d="M150.411 36.5779H146.829V43.6805C146.829 45.487 147.46 46.3895 148.725 46.3895C149.306 46.3895 149.788 46.3392 150.169 46.2386L150.259 48.7067C149.618 48.9461 148.775 49.0665 147.731 49.0665C146.447 49.0665 145.444 48.6747 144.72 47.8927C143.999 47.1091 143.636 45.795 143.636 43.9488V36.5748H141.502V34.1357H143.636V31.4571L146.829 30.4937V34.1357H150.411V36.5779Z" fill="#23304C"/>
<path d="M166.575 41.3332C166.575 43.5818 165.931 45.428 164.648 46.8717C163.302 48.3581 161.515 49.099 159.288 49.099C157.141 49.099 155.432 48.387 154.158 46.9631C152.883 45.5393 152.246 43.7419 152.246 41.5756C152.246 39.3087 152.902 37.4519 154.217 36.0082C155.53 34.5629 157.301 33.8403 159.529 33.8403C161.675 33.8403 163.402 34.5523 164.706 35.9777C165.953 37.3604 166.575 39.1456 166.575 41.3332ZM163.203 41.4384C163.203 40.0892 162.914 38.9321 162.331 37.9671C161.649 36.7994 160.675 36.217 159.413 36.217C158.106 36.217 157.114 36.8009 156.432 37.9671C155.848 38.9337 155.56 40.109 155.56 41.4994C155.56 42.8485 155.848 44.0056 156.432 44.9691C157.135 46.1369 158.117 46.7192 159.384 46.7192C160.625 46.7192 161.599 46.1247 162.302 44.9386C162.901 43.9553 163.203 42.786 163.203 41.4384Z" fill="#23304C"/>
<path d="M177.139 36.9971C176.818 36.9377 176.475 36.9072 176.115 36.9072C174.971 36.9072 174.087 37.3386 173.465 38.203C172.924 38.9652 172.653 39.9287 172.653 41.0919V48.7677H169.404L169.434 38.7457C169.434 37.0596 169.393 35.5245 169.312 34.1402H172.143L172.262 36.9392H172.352C172.695 35.9772 173.237 35.2028 173.977 34.622C174.702 34.0991 175.484 33.8384 176.327 33.8384C176.627 33.8384 176.898 33.8597 177.139 33.8978V36.9971Z" fill="#23304C"/>
<path d="M191.676 40.7612C191.676 41.3435 191.638 41.8344 191.557 42.2354H181.806C181.844 43.6806 182.315 44.7858 183.221 45.5481C184.043 46.2295 185.105 46.571 186.41 46.571C187.854 46.571 189.171 46.3408 190.355 45.8789L190.865 48.1351C189.48 48.7388 187.846 49.0392 185.96 49.0392C183.692 49.0392 181.911 48.3714 180.615 47.0375C179.323 45.7036 178.675 43.9123 178.675 41.6652C178.675 39.4593 179.277 37.6223 180.483 36.1572C181.745 34.5931 183.451 33.811 185.598 33.811C187.706 33.811 189.302 34.5931 190.386 36.1572C191.244 37.3997 191.676 38.9364 191.676 40.7612ZM188.576 39.9181C188.598 38.9547 188.386 38.1223 187.945 37.4195C187.383 36.5155 186.518 36.0642 185.355 36.0642C184.293 36.0642 183.428 36.5048 182.768 37.389C182.227 38.0918 181.905 38.9348 181.806 39.9166H188.576V39.9181Z" fill="#23304C"/>
<path d="M81.7562 23.522H80.0656V21.0002H73.3101V23.522H71.5913L71.5349 19.5772H72.3591C72.7677 19.1827 73.0941 18.6098 73.3383 17.8584C73.5825 17.1023 73.7398 16.2476 73.8102 15.2943L74.0779 10.7437H80.5446V19.5772H81.8478L81.7562 23.522ZM74.3738 19.5772H78.7694V12.1807H75.7756L75.6065 15.0689C75.4797 16.999 75.0688 18.5018 74.3738 19.5772Z" fill="#23304C"/>
<path d="M83.4215 17.1188C83.4215 16.3721 83.5694 15.7005 83.8653 15.1041C84.1611 14.503 84.5768 14.0427 85.1121 13.7234C85.6475 13.3994 86.2627 13.2373 86.9577 13.2373C87.9862 13.2373 88.8198 13.5684 89.4585 14.2306C90.1019 14.8928 90.4494 15.7709 90.501 16.8652L90.5081 17.2667C90.5081 18.0181 90.3625 18.6896 90.0713 19.2814C89.7849 19.8731 89.3716 20.331 88.8315 20.655C88.2962 20.979 87.6763 21.1411 86.9718 21.1411C85.8964 21.1411 85.0346 20.7842 84.3866 20.0703C83.7432 19.3518 83.4215 18.3961 83.4215 17.2033V17.1188ZM85.1333 17.2667C85.1333 18.051 85.2953 18.6662 85.6193 19.1123C85.9434 19.5537 86.3942 19.7745 86.9718 19.7745C87.5495 19.7745 87.9979 19.549 88.3173 19.0982C88.6413 18.6474 88.8033 17.9876 88.8033 17.1188C88.8033 16.3486 88.6366 15.7381 88.3032 15.2872C87.9745 14.8364 87.526 14.611 86.9577 14.611C86.3989 14.611 85.9551 14.8341 85.6264 15.2802C85.2976 15.7216 85.1333 16.3838 85.1333 17.2667Z" fill="#23304C"/>
<path d="M95.8082 19.7745C96.2356 19.7745 96.5901 19.65 96.8719 19.4011C97.1537 19.1522 97.304 18.8446 97.3227 18.4783H98.9359C98.9171 18.9526 98.7692 19.3964 98.4921 19.8097C98.215 20.2183 97.8393 20.5423 97.365 20.7818C96.8907 21.0213 96.3788 21.1411 95.8293 21.1411C94.7633 21.1411 93.918 20.7959 93.2934 20.1055C92.6688 19.4152 92.3565 18.4619 92.3565 17.2456V17.0694C92.3565 15.9095 92.6665 14.982 93.2864 14.2869C93.9062 13.5872 94.7516 13.2373 95.8223 13.2373C96.7287 13.2373 97.466 13.5027 98.0342 14.0333C98.6072 14.5593 98.9077 15.252 98.9359 16.1114H97.3227C97.304 15.6747 97.1537 15.3154 96.8719 15.0336C96.5948 14.7519 96.2403 14.611 95.8082 14.611C95.2541 14.611 94.8267 14.8129 94.5261 15.2168C94.2256 15.616 94.073 16.2241 94.0683 17.0413V17.316C94.0683 18.1425 94.2162 18.7601 94.5121 19.1687C94.8126 19.5725 95.2447 19.7745 95.8082 19.7745Z" fill="#23304C"/>
<path d="M106.948 14.7378H104.476V21.0002H102.764V14.7378H100.319V13.3782H106.948V14.7378Z" fill="#23304C"/>
<path d="M111.565 18.5488L113.115 13.3782H114.939L111.91 22.1554C111.445 23.4375 110.656 24.0785 109.543 24.0785C109.294 24.0785 109.02 24.0363 108.719 23.9517V22.6274L109.043 22.6485C109.475 22.6485 109.799 22.5687 110.015 22.409C110.236 22.2541 110.41 21.9911 110.536 21.6201L110.783 20.965L108.106 13.3782H109.952L111.565 18.5488Z" fill="#23304C"/>
<path d="M123.113 21.0002H121.402V14.7589H118.429V21.0002H116.717V13.3782H123.113V21.0002Z" fill="#23304C"/>
<path d="M132.112 21.0002H130.4V17.9218H127.434V21.0002H125.723V13.3782H127.434V16.5552H130.4V13.3782H132.112V21.0002Z" fill="#23304C"/>
<path d="M134.341 17.1188C134.341 16.3721 134.489 15.7005 134.784 15.1041C135.08 14.503 135.496 14.0427 136.031 13.7234C136.567 13.3994 137.182 13.2373 137.877 13.2373C138.905 13.2373 139.739 13.5684 140.378 14.2306C141.021 14.8928 141.368 15.7709 141.42 16.8652L141.427 17.2667C141.427 18.0181 141.282 18.6896 140.99 19.2814C140.704 19.8731 140.291 20.331 139.751 20.655C139.215 20.979 138.595 21.1411 137.891 21.1411C136.816 21.1411 135.954 20.7842 135.306 20.0703C134.662 19.3518 134.341 18.3961 134.341 17.2033V17.1188ZM136.052 17.2667C136.052 18.051 136.214 18.6662 136.538 19.1123C136.862 19.5537 137.313 19.7745 137.891 19.7745C138.469 19.7745 138.917 19.549 139.236 19.0982C139.56 18.6474 139.722 17.9876 139.722 17.1188C139.722 16.3486 139.556 15.7381 139.222 15.2872C138.894 14.8364 138.445 14.611 137.877 14.611C137.318 14.611 136.874 14.8341 136.545 15.2802C136.217 15.7216 136.052 16.3838 136.052 17.2667Z" fill="#23304C"/>
<path d="M148.04 21.0002V13.3782H151.133C152.175 13.3782 152.969 13.5614 153.514 13.9277C154.059 14.2893 154.331 14.8106 154.331 15.4915C154.331 15.8437 154.221 16.1607 154 16.4425C153.784 16.7196 153.462 16.9333 153.035 17.0835C153.533 17.1869 153.927 17.3958 154.218 17.7105C154.509 18.0251 154.655 18.3961 154.655 18.8235C154.655 19.5326 154.392 20.0727 153.866 20.4437C153.345 20.8147 152.593 21.0002 151.612 21.0002H148.04ZM149.752 17.7527V19.6477H151.626C152.504 19.6477 152.943 19.333 152.943 18.7037C152.943 18.0697 152.497 17.7527 151.605 17.7527H149.752ZM149.752 16.527H151.161C152.133 16.527 152.619 16.2406 152.619 15.6676C152.619 15.0665 152.159 14.7566 151.239 14.7378H149.752V16.527Z" fill="#23304C"/>
</g>
<defs>
<clipPath id="clip0_188_2338">
<rect width="216" height="64" fill="white"/>
</clipPath>
</defs>
</svg>
