<svg width="106" height="94" viewBox="0 0 106 94" fill="none" xmlns="http://www.w3.org/2000/svg">
<rect x="32.3829" y="1.38807" width="74" height="74" rx="9" transform="rotate(15 32.3829 1.38807)" fill="white" stroke="#F5F5F5" stroke-width="2"/>
<rect y="14.0001" width="80" height="80" rx="10" fill="url(#paint0_linear_188_2109)"/>
<g clip-path="url(#clip0_188_2109)">
<path d="M62.6359 34.4557H17.3609C14.9957 34.4557 13.0703 36.3177 13.0703 38.605V69.395C13.0703 71.6824 14.9957 73.5444 17.3609 73.5444H62.6359C65.0011 73.5444 66.9265 71.6824 66.9265 69.395V38.605C66.9265 36.3177 65.0011 34.4557 62.6359 34.4557ZM17.3609 36.1918H62.6359C64.0114 36.1918 65.1313 37.2747 65.1313 38.605V43.1254H14.8653V38.605C14.8653 37.2747 15.9853 36.1918 17.3609 36.1918ZM62.6359 71.8079H17.3609C15.9853 71.8079 14.8655 70.725 14.8655 69.3947V44.8636H65.1315V69.3947C65.1315 70.725 64.0115 71.8079 62.6359 71.8079Z" fill="white"/>
<path d="M25.7609 41.0574H54.2419C54.7378 41.0574 55.1395 40.6689 55.1395 40.1893C55.1395 39.7097 54.7378 39.3213 54.2419 39.3213H25.7609C25.265 39.3213 24.8633 39.7097 24.8633 40.1893C24.8633 40.6689 25.265 41.0574 25.7609 41.0574Z" fill="white"/>
<path d="M27.9635 56.8563C28.5447 56.2161 28.9083 55.3871 28.9083 54.4713C28.9083 52.466 27.2208 50.8341 25.1473 50.8341C23.0738 50.8341 21.3863 52.466 21.3863 54.4713C21.3863 55.387 21.7498 56.216 22.331 56.8563C20.2104 57.7525 18.7227 59.799 18.7227 62.1753V63.5663C18.7227 64.0459 19.1243 64.4344 19.6203 64.4344H30.6742C31.1701 64.4344 31.5718 64.0459 31.5718 63.5663V62.1753C31.5718 59.7968 30.0841 57.7525 27.9635 56.8563ZM25.1473 52.5703C26.2312 52.5703 27.1131 53.4232 27.1131 54.4713C27.1131 55.5195 26.2312 56.3724 25.1473 56.3724C24.0635 56.3724 23.1816 55.5195 23.1816 54.4713C23.1816 53.4232 24.0635 52.5703 25.1473 52.5703ZM29.7767 62.698H20.518V62.175C20.518 59.9311 22.4053 58.106 24.7256 58.106H25.5693C27.8897 58.106 29.7769 59.9312 29.7769 62.175L29.7767 62.698Z" fill="white"/>
<path d="M60.3809 56.7651H58.2088V54.6644C58.2088 54.1848 57.8071 53.7964 57.3111 53.7964C56.8152 53.7964 56.4135 54.1848 56.4135 54.6644V56.7651H54.2414C53.7454 56.7651 53.3438 57.1536 53.3438 57.6332C53.3438 58.1128 53.7454 58.5012 54.2414 58.5012H56.4135V60.6019C56.4135 61.0815 56.8152 61.4699 57.3111 61.4699C57.8071 61.4699 58.2088 61.0815 58.2088 60.6019V58.5012H60.3809C60.8769 58.5012 61.2785 58.1128 61.2785 57.6332C61.2785 57.1536 60.8769 56.7651 60.3809 56.7651Z" fill="white"/>
<path d="M50.633 50.4152H34.8937C34.3978 50.4152 33.9961 50.8036 33.9961 51.2832C33.9961 51.7628 34.3978 52.1513 34.8937 52.1513H50.633C51.1289 52.1513 51.5306 51.7628 51.5306 51.2832C51.5306 50.8036 51.1289 50.4152 50.633 50.4152Z" fill="white"/>
<path d="M50.633 54.8507H34.8937C34.3978 54.8507 33.9961 55.2392 33.9961 55.7188C33.9961 56.1984 34.3978 56.5868 34.8937 56.5868H50.633C51.1289 56.5868 51.5306 56.1984 51.5306 55.7188C51.5306 55.2392 51.1289 54.8507 50.633 54.8507Z" fill="white"/>
<path d="M50.633 59.2891H34.8937C34.3978 59.2891 33.9961 59.6775 33.9961 60.1571C33.9961 60.6367 34.3978 61.0252 34.8937 61.0252H50.633C51.1289 61.0252 51.5306 60.6367 51.5306 60.1571C51.5306 59.6775 51.1289 59.2891 50.633 59.2891Z" fill="white"/>
<path d="M50.633 63.7268H34.8937C34.3978 63.7268 33.9961 64.1153 33.9961 64.5949C33.9961 65.0745 34.3978 65.4629 34.8937 65.4629H50.633C51.1289 65.4629 51.5306 65.0745 51.5306 64.5949C51.5306 64.1153 51.1289 63.7268 50.633 63.7268Z" fill="white"/>
</g>
<defs>
<linearGradient id="paint0_linear_188_2109" x1="20" y1="27.75" x2="115" y2="160.25" gradientUnits="userSpaceOnUse">
<stop stop-color="#9FD6DC"/>
<stop offset="1" stop-color="#008B94"/>
</linearGradient>
<clipPath id="clip0_188_2109">
<rect width="54" height="40" fill="white" transform="translate(13 34.0001)"/>
</clipPath>
</defs>
</svg>
