<svg width="106" height="94" viewBox="0 0 106 94" fill="none" xmlns="http://www.w3.org/2000/svg">
<rect x="32.3829" y="1.22474" width="74" height="74" rx="9" transform="rotate(15 32.3829 1.22474)" fill="white" stroke="#F5F5F5" stroke-width="2"/>
<rect y="14" width="80" height="80" rx="10" fill="url(#paint0_linear_188_2128)"/>
<g clip-path="url(#clip0_188_2128)">
<path d="M40.6898 50.5808C35.8735 54.1146 34.9026 60.808 38.5245 65.5034C40.612 68.2021 43.8019 69.7493 47.2771 69.7493C49.6603 69.7493 51.9286 69.0106 53.8332 67.6128C56.171 65.9034 57.6819 63.408 58.0904 60.5893C58.4995 57.7717 57.7569 54.9664 56.0001 52.689C53.9126 49.9898 50.7238 48.4421 47.2519 48.4421C44.8703 48.4426 42.6015 49.1818 40.6898 50.5808ZM55.0352 53.3957C56.5992 55.4224 57.2596 57.9178 56.8966 60.4256C56.5324 62.9333 55.1885 65.152 53.1081 66.6741C51.4127 67.9178 49.3958 68.5744 47.2771 68.5744C44.1841 68.5744 41.3447 67.1978 39.4883 64.7973C36.265 60.6192 37.1297 54.6629 41.4143 51.5194C43.1146 50.2757 45.1337 49.6186 47.2519 49.6186C50.341 49.6181 53.1793 50.9952 55.0352 53.3957ZM62.0086 73.2645L57.8713 67.9024C59.5816 65.96 60.6938 63.5845 61.0694 60.9904C61.5891 57.401 60.6423 53.8314 58.4009 50.9392C56.5456 48.5322 54.003 46.8464 51.1301 46.0469V30.5909C51.1301 30.2666 50.8602 30.0032 50.5272 30.0032H17.9882C17.6542 30.0032 17.3848 30.2661 17.3848 30.5909V74.6304C17.3848 74.9546 17.6536 75.2181 17.9882 75.2181H50.5278C50.8602 75.2181 51.1307 74.9552 51.1307 74.6304V72.1322C51.773 71.9514 52.4001 71.7269 53.0112 71.4565L57.1529 76.8128C57.6375 77.4448 58.3483 77.8544 59.1533 77.9658C59.3006 77.9856 59.4463 77.9957 59.5903 77.9957C60.2442 77.9957 60.8772 77.7914 61.4035 77.4048C62.0524 76.9322 62.4724 76.2394 62.5863 75.4544C62.7013 74.6704 62.496 73.8912 62.0086 73.2645ZM57.4371 51.6453C59.4852 54.288 60.351 57.5488 59.8756 60.8266C59.5131 63.3338 58.3976 65.6176 56.6775 67.4453C56.6573 67.464 56.6386 67.4816 56.6217 67.5018C56.1053 68.0437 55.5379 68.5461 54.9186 69.0005C52.6914 70.6341 50.047 71.4976 47.2711 71.4976C43.2313 71.4976 39.519 69.6928 37.087 66.5477C35.0438 63.904 34.1813 60.6426 34.6589 57.3632C35.1358 54.0842 36.8975 51.1824 39.6175 49.1925C41.8398 47.5589 44.4821 46.6954 47.259 46.6954C51.301 46.6954 55.0111 48.4997 57.4371 51.6453ZM36.345 50.6469V38.9434H38.1669V48.8266C37.5016 49.3829 36.897 49.9914 36.3587 50.6469H36.345ZM44.1518 45.8677C43.5352 46.0053 42.9317 46.1861 42.342 46.4048V34.8085H44.1518V45.8677ZM18.5906 68.7104C18.7045 68.7493 18.8173 68.792 18.9318 68.8197L32.2011 74.0426H18.5906V68.7104ZM21.5204 68.5712C22.2312 68.2506 22.8538 67.7306 23.2886 67.064C23.6577 66.5002 23.8647 65.881 23.9064 65.2506L32.0522 72.7173L21.5204 68.5712ZM49.9232 74.0426H35.2476C35.2366 74.0314 35.2311 74.0176 35.2202 74.0074L23.3927 63.1669C23.1808 62.9728 22.8599 62.953 22.6255 63.1189C22.3906 63.2848 22.3106 63.5882 22.4322 63.8432C22.9962 65.0202 22.5729 65.9701 22.2712 66.432C21.6316 67.4122 20.4219 67.9381 19.2992 67.6965L18.5906 67.4181V31.1786H49.9232V45.769C49.0563 45.6074 48.1664 45.5205 47.2596 45.5205C46.6172 45.5205 45.9836 45.5717 45.3577 45.6554V34.2202C45.3577 33.896 45.0883 33.6325 44.7548 33.6325H41.7374C41.4044 33.6325 41.1345 33.8954 41.1345 34.2202V46.9157C40.5271 47.209 39.9374 47.5477 39.3717 47.9285V38.3552C39.3717 38.032 39.1017 37.7674 38.7682 37.7674H35.741C35.4075 37.7674 35.138 38.0314 35.138 38.3552V51.2346C35.138 51.4842 35.2979 51.696 35.5225 51.7808C34.4568 53.4 33.7493 55.2357 33.464 57.1973C32.9404 60.7872 33.8845 64.3589 36.1221 67.2538C38.7835 70.6965 42.8469 72.6714 47.27 72.6714C48.1703 72.6714 49.0552 72.5781 49.9221 72.4154V74.0426H49.9232ZM61.3925 75.2896C61.3235 75.7632 61.07 76.1797 60.6779 76.4656C60.2913 76.7504 59.8094 76.8682 59.3236 76.8032C58.8368 76.7354 58.4091 76.4896 58.1178 76.1088L54.101 70.9136C54.6305 70.6213 55.1491 70.3024 55.6431 69.9392C56.137 69.5781 56.6003 69.1872 57.0346 68.7728L61.0442 73.9717C61.3378 74.3477 61.461 74.8165 61.3925 75.2896ZM42.7412 52.264C42.9416 52.5226 42.8885 52.8917 42.6218 53.0864C41.0709 54.2208 40.0228 55.8688 39.6707 57.7226C39.6159 58.0053 39.3629 58.2037 39.0771 58.2037C39.0409 58.2037 39.0048 58.2 38.967 58.193C38.6406 58.1344 38.4237 57.8277 38.4834 57.5088C38.8914 55.3637 40.1033 53.4592 41.8962 52.1466C42.1618 51.953 42.5402 52.0042 42.7412 52.264ZM23.7607 51.8218H26.7759C27.1088 51.8218 27.3794 51.5594 27.3794 51.2346V44.4266C27.3794 44.1024 27.1094 43.8384 26.7759 43.8384H23.7607C23.4266 43.8384 23.1572 44.1018 23.1572 44.4266V51.2352C23.1572 51.5594 23.4261 51.8218 23.7607 51.8218ZM24.3625 45.0144H26.173V50.6469H24.3625V45.0144ZM33.3747 41.7658C33.3747 41.441 33.1064 41.1776 32.7718 41.1776H29.744C29.4116 41.1776 29.1411 41.4405 29.1411 41.7658V51.2352C29.1411 51.5594 29.411 51.8224 29.744 51.8224H32.7723C33.1064 51.8224 33.3752 51.56 33.3752 51.2352L33.3747 41.7658ZM32.1694 50.6469H30.3486V42.353H32.1694V50.6469ZM29.2478 57.017C29.2478 57.3413 28.9784 57.6048 28.6449 57.6048H21.7608C21.4278 57.6048 21.1573 57.3418 21.1573 57.017C21.1573 56.6922 21.4273 56.4293 21.7608 56.4293H28.6449C28.9784 56.4298 29.2478 56.6928 29.2478 57.017ZM29.2478 60.4384C29.2478 60.7621 28.9784 61.0256 28.6449 61.0256H21.7608C21.4278 61.0256 21.1573 60.7626 21.1573 60.4384C21.1573 60.1141 21.4273 59.8501 21.7608 59.8501H28.6449C28.9784 59.8506 29.2478 60.1141 29.2478 60.4384Z" fill="white"/>
</g>
<defs>
<linearGradient id="paint0_linear_188_2128" x1="20" y1="27.7499" x2="115" y2="160.25" gradientUnits="userSpaceOnUse">
<stop stop-color="#9FD6DC"/>
<stop offset="1" stop-color="#008B94"/>
</linearGradient>
<clipPath id="clip0_188_2128">
<rect width="46" height="48" fill="white" transform="translate(17 30)"/>
</clipPath>
</defs>
</svg>
