<svg width="106" height="94" viewBox="0 0 106 94" fill="none" xmlns="http://www.w3.org/2000/svg">
<rect x="32.3829" y="1.22474" width="74" height="74" rx="9" transform="rotate(15 32.3829 1.22474)" fill="white" stroke="#F5F5F5" stroke-width="2"/>
<rect y="14" width="80" height="80" rx="10" fill="url(#paint0_linear_188_2137)"/>
<g clip-path="url(#clip0_188_2137)">
<path d="M35.7357 56.4375L43.2437 60.7735C43.359 60.8399 43.4898 60.8731 43.6187 60.8731C43.7477 60.8731 43.8785 60.8399 43.9937 60.7735C44.2262 60.6387 44.3687 60.3926 44.3687 60.1231V56.4375H50.4372C52.0622 56.4375 53.3845 55.1211 53.3845 53.5039V46.5039C53.3845 44.8789 52.0622 43.5567 50.4372 43.5567H18.4472C16.8223 43.5567 15.5 44.8789 15.5 46.5039V53.5059C15.5 55.1231 16.8223 56.4395 18.4472 56.4395H35.7362L35.7357 56.4375ZM16.9992 53.5059V46.5039C16.9992 45.7187 17.6614 45.0566 18.4465 45.0566H50.435C51.2182 45.0566 51.8822 45.7187 51.8822 46.5039V53.5059C51.8822 54.2832 51.2201 54.9395 50.435 54.9395H43.6185C43.2044 54.9395 42.8685 55.2754 42.8685 55.6895V58.8281L36.312 55.041C36.1987 54.9746 36.0679 54.9395 35.937 54.9395H18.447C17.6638 54.9375 16.9997 54.2813 16.9997 53.5059L16.9992 53.5059ZM20.0637 48.1194C20.0637 47.7053 20.3996 47.3694 20.8137 47.3694H30.7787C31.1928 47.3694 31.5287 47.7053 31.5287 48.1194C31.5287 48.5334 31.1928 48.8694 30.7787 48.8694H20.8137C20.3996 48.8694 20.0637 48.5334 20.0637 48.1194ZM20.0637 51.8752C20.0637 51.4612 20.3996 51.1252 20.8137 51.1252H35.1282C35.5423 51.1252 35.8782 51.4612 35.8782 51.8752C35.8782 52.2893 35.5423 52.6252 35.1282 52.6252H20.8137C20.3996 52.6252 20.0637 52.2893 20.0637 51.8752ZM61.5617 61.1897H29.5577C27.9405 61.1897 26.626 62.5061 26.626 64.1214V71.1234C26.626 72.7484 27.9424 74.0706 29.5577 74.0706H35.6397V77.7562C35.6397 78.0238 35.7823 78.2718 36.0147 78.4066C36.1299 78.473 36.2588 78.5062 36.3897 78.5062C36.5206 78.5062 36.6495 78.473 36.7667 78.4046L44.2727 74.0706H61.5617C63.1867 74.0706 64.5089 72.7484 64.5089 71.1234V64.1214C64.5089 62.5042 63.1867 61.1897 61.5617 61.1897ZM63.0089 71.1232C63.0089 71.9064 62.3469 72.5705 61.5617 72.5705H44.0717C43.9408 72.5705 43.8119 72.6056 43.6987 72.6701L37.1402 76.4533V73.3185C37.1402 72.9045 36.8042 72.5685 36.3902 72.5685L29.5582 72.5705C28.7808 72.5705 28.1265 71.9084 28.1265 71.1232V64.1212C28.1265 63.3322 28.7691 62.6896 29.5582 62.6896H61.5622C62.361 62.6896 63.0094 63.3322 63.0094 64.1212L63.0089 71.1232ZM59.9445 65.7522C59.9445 66.1663 59.6086 66.5022 59.1945 66.5022H49.216C48.8019 66.5022 48.466 66.1663 48.466 65.7522C48.466 65.3382 48.8019 65.0022 49.216 65.0022H59.1945C59.6086 65.0022 59.9445 65.3382 59.9445 65.7522ZM59.9445 69.5081C59.9445 69.9221 59.6086 70.2581 59.1945 70.2581H44.88C44.4659 70.2581 44.13 69.9221 44.13 69.5081C44.13 69.094 44.4659 68.7581 44.88 68.7581H59.1945C59.6086 68.7581 59.9445 69.094 59.9445 69.5081ZM61.8449 29.4966H39.6634C38.1946 29.4966 36.9993 30.6919 36.9993 32.1606V38.2701C36.9993 39.7311 38.1946 40.9186 39.6634 40.9186H49.0014L55.5169 44.6862C55.6321 44.7526 55.763 44.7858 55.8919 44.7858C56.0208 44.7858 56.1517 44.7526 56.2669 44.6862C56.4993 44.5514 56.6419 44.3053 56.6419 44.0358V40.9166H61.8449C63.3136 40.9166 64.5089 39.7272 64.5089 38.2682V32.1607C64.5089 30.6919 63.3136 29.4966 61.8449 29.4966ZM63.0089 38.2701C63.0089 38.9029 62.4874 39.4185 61.8449 39.4185H55.8919C55.4778 39.4185 55.1419 39.7545 55.1419 40.1685V42.7388L49.5774 39.5201C49.4622 39.4537 49.3333 39.4185 49.2004 39.4185H39.6634C39.0228 39.4185 38.4994 38.9029 38.4994 38.2701L38.5013 32.1606C38.5013 31.5297 39.0345 30.9965 39.6654 30.9965H61.8469C62.4777 30.9965 63.0109 31.5297 63.0109 32.1606L63.0089 38.2701ZM45.3624 33.1391C44.214 33.1391 43.2804 34.0668 43.2804 35.2074C43.2804 36.3559 44.214 37.2895 45.3624 37.2895C46.5109 37.2895 47.4445 36.3559 47.4445 35.2074C47.4445 34.0688 46.5109 33.1391 45.3624 33.1391ZM45.3624 35.7895C45.0421 35.7895 44.7804 35.5278 44.7804 35.2074C44.7804 34.8949 45.0421 34.6391 45.3624 34.6391C45.6847 34.6391 45.9445 34.8949 45.9445 35.2074C45.9445 35.5297 45.6828 35.7895 45.3624 35.7895ZM50.7474 33.1391C49.6068 33.1391 48.6791 34.0668 48.6791 35.2074C48.6791 36.3559 49.6068 37.2895 50.7474 37.2895C51.8959 37.2895 52.8295 36.3559 52.8295 35.2074C52.8295 34.0688 51.8959 33.1391 50.7474 33.1391ZM50.7474 35.7895C50.4349 35.7895 50.1791 35.5278 50.1791 35.2074C50.1791 34.8988 50.4389 34.6391 50.7474 34.6391C51.0678 34.6391 51.3295 34.8949 51.3295 35.2074C51.3295 35.5297 51.0697 35.7895 50.7474 35.7895ZM56.1479 33.1391C54.9995 33.1391 54.0659 34.0668 54.0659 35.2074C54.0659 36.3559 54.9995 37.2895 56.1479 37.2895C57.2964 37.2895 58.23 36.3559 58.23 35.2074C58.23 34.0688 57.2964 33.1391 56.1479 33.1391ZM56.1479 35.7895C55.8257 35.7895 55.5659 35.5278 55.5659 35.2074C55.5659 34.8949 55.8276 34.6391 56.1479 34.6391C56.4683 34.6391 56.73 34.8949 56.73 35.2074C56.73 35.5297 56.4683 35.7895 56.1479 35.7895ZM21.2554 36.2289C21.2554 35.8149 21.5914 35.4789 22.0054 35.4789H23.2671V34.2172C23.2671 33.8032 23.6031 33.4672 24.0171 33.4672C24.4312 33.4672 24.7671 33.8032 24.7671 34.2172V35.4789H26.0288C26.4429 35.4789 26.7788 35.8149 26.7788 36.2289C26.7788 36.643 26.4429 36.9789 26.0288 36.9789H24.7671V38.2563C24.7671 38.6703 24.4312 39.0063 24.0171 39.0063C23.6031 39.0063 23.2671 38.6703 23.2671 38.2563V36.9789H22.0054C21.5894 36.9789 21.2554 36.643 21.2554 36.2289ZM59.6189 49.5804V50.8421H60.8806C61.2947 50.8421 61.6306 51.1781 61.6306 51.5921C61.6306 52.0062 61.2947 52.3421 60.8806 52.3421H59.6189V53.6038C59.6189 54.0179 59.283 54.3538 58.8689 54.3538C58.4549 54.3538 58.1189 54.0179 58.1189 53.6038V52.3421H56.8416C56.4275 52.3421 56.0916 52.0062 56.0916 51.5921C56.0916 51.1781 56.4275 50.8421 56.8416 50.8421H58.1189V49.5804C58.1189 49.1664 58.4549 48.8304 58.8689 48.8304C59.283 48.8304 59.6189 49.1644 59.6189 49.5804ZM19.2419 63.8364H17.9802C17.5662 63.8364 17.2303 63.5005 17.2303 63.0864C17.2303 62.6724 17.5662 62.3364 17.9802 62.3364H19.2419V61.0747C19.2419 60.6607 19.5779 60.3247 19.9919 60.3247C20.406 60.3247 20.7419 60.6607 20.7419 61.0747V62.3364H22.0036C22.4177 62.3364 22.7536 62.6724 22.7536 63.0864C22.7536 63.5005 22.4177 63.8364 22.0036 63.8364H20.7419V65.1138C20.7419 65.5279 20.406 65.8638 19.9919 65.8638C19.5779 65.8638 19.2419 65.5279 19.2419 65.1138V63.8364ZM24.7674 74.1569C24.7674 74.571 24.4315 74.9069 24.0174 74.9069H19.992C19.578 74.9069 19.242 74.571 19.242 74.1569C19.242 73.7429 19.578 73.4069 19.992 73.4069H24.0174C24.4315 73.4069 24.7674 73.7429 24.7674 74.1569ZM28.7948 40.1684C28.7948 39.7544 29.1307 39.4184 29.5448 39.4184H33.5838C33.9979 39.4184 34.3338 39.7544 34.3338 40.1684C34.3338 40.5825 33.9979 40.9184 33.5838 40.9184H29.5448C29.1307 40.9184 28.7948 40.5825 28.7948 40.1684Z" fill="white"/>
</g>
<defs>
<linearGradient id="paint0_linear_188_2137" x1="20" y1="27.7499" x2="115" y2="160.25" gradientUnits="userSpaceOnUse">
<stop stop-color="#9FD6DC"/>
<stop offset="1" stop-color="#008B94"/>
</linearGradient>
<clipPath id="clip0_188_2137">
<rect width="50" height="50" fill="white" transform="translate(15 29)"/>
</clipPath>
</defs>
</svg>
