<svg width="106" height="94" viewBox="0 0 106 94" fill="none" xmlns="http://www.w3.org/2000/svg">
<rect x="32.3829" y="1.22474" width="74" height="74" rx="9" transform="rotate(15 32.3829 1.22474)" fill="white" stroke="#F5F5F5" stroke-width="2"/>
<rect y="14" width="80" height="80" rx="10" fill="url(#paint0_linear_188_2146)"/>
<g clip-path="url(#clip0_188_2146)">
<path d="M38.3195 33.2614H44.0338C44.353 33.2614 44.6052 33.0106 44.6052 32.6932C44.6052 32.3758 44.353 32.125 44.0338 32.125H38.3195C38.0003 32.125 37.748 32.3758 37.748 32.6932C37.748 33.0106 38.0003 33.2614 38.3195 33.2614Z" fill="white"/>
<path d="M38.5009 76.7273H43.8602C44.1794 76.7273 44.4317 76.4765 44.4317 76.1591L44.4339 74.4545C44.4339 74.1372 44.1816 73.8864 43.8625 73.8864H38.5031C38.1839 73.8864 37.9317 74.1372 37.9317 74.4545V76.1591C37.9294 76.4765 38.1817 76.7273 38.5009 76.7273ZM39.0723 75.0227H43.2888L43.291 75.5909H39.0745L39.0723 75.0227Z" fill="white"/>
<path d="M30.3195 76.7273H32.469C32.7882 76.7273 33.0404 76.4765 33.0404 76.1591V74.4545C33.0404 74.1372 32.7882 73.8864 32.469 73.8864H30.3195C30.0003 73.8864 29.748 74.1372 29.748 74.4545V76.1591C29.748 76.4765 30.0003 76.7273 30.3195 76.7273ZM30.8909 75.0227H31.8976V75.5909H30.8909V75.0227Z" fill="white"/>
<path d="M49.8862 76.7273H52.0357C52.3549 76.7273 52.6071 76.4765 52.6071 76.1591L52.6049 74.4545C52.6049 74.1372 52.3527 73.8864 52.0335 73.8864H49.8839C49.5647 73.8864 49.3125 74.1372 49.3125 74.4545V76.1591C49.3147 76.4765 49.5781 76.7273 49.8862 76.7273ZM50.4576 75.0227H51.4643L51.462 75.5909H50.4554L50.4576 75.0227Z" fill="white"/>
<path d="M54.7653 44.5916H53.051V42.887C53.051 42.5696 52.7988 42.3188 52.4796 42.3188H49.4394C49.1202 42.3188 48.868 42.5696 48.868 42.887V44.5916H47.1537C46.8345 44.5916 46.5823 44.8424 46.5823 45.1598V48.1827C46.5823 48.5 46.8345 48.7508 47.1537 48.7508H48.868V50.4554C48.868 50.7728 49.1202 51.0236 49.4394 51.0236H52.4796C52.7988 51.0236 53.051 50.7728 53.051 50.4554V48.7508H54.7653C55.0845 48.7508 55.3367 48.5 55.3367 48.1827V45.1598C55.3367 44.8513 55.0845 44.5916 54.7653 44.5916ZM54.1939 47.6256H52.4796C52.1604 47.6256 51.9082 47.8764 51.9082 48.1937V49.8983H50.0108V48.1937C50.0108 47.8764 49.7586 47.6256 49.4394 47.6256H47.7251V45.739H49.4394C49.7586 45.739 50.0108 45.4882 50.0108 45.1708V43.4663H51.9082V45.1708C51.9082 45.4882 52.1604 45.739 52.4796 45.739H54.1939V47.6256Z" fill="white"/>
<path d="M36.9709 61.659C38.0692 61.659 38.9709 60.7624 38.9709 59.6704C38.9709 58.5784 38.0692 57.6818 36.9709 57.6818C35.8727 57.6818 34.9709 58.5784 34.9709 59.6704C34.9709 60.7602 35.8638 61.659 36.9709 61.659ZM36.9709 58.8181C37.4397 58.8181 37.8281 59.2043 37.8281 59.6704C37.8281 60.1365 37.4397 60.5227 36.9709 60.5227C36.5022 60.5227 36.1138 60.1365 36.1138 59.6704C36.1138 59.2043 36.491 58.8181 36.9709 58.8181Z" fill="white"/>
<path d="M31.6797 61.659C32.7779 61.659 33.6797 60.7624 33.6797 59.6704C33.6797 58.5784 32.7779 57.6818 31.6797 57.6818C30.5815 57.6818 29.6797 58.5784 29.6797 59.6704C29.6797 60.7602 30.5815 61.659 31.6797 61.659ZM31.6797 58.8181C32.1484 58.8181 32.5368 59.2043 32.5368 59.6704C32.5368 60.1365 32.1484 60.5227 31.6797 60.5227C31.2109 60.5227 30.8225 60.1365 30.8225 59.6704C30.8225 59.2043 31.2109 58.8181 31.6797 58.8181Z" fill="white"/>
<path d="M26.4004 57.6818C25.3022 57.6818 24.4004 58.5784 24.4004 59.6704C24.4004 60.7624 25.3022 61.659 26.4004 61.659C27.4986 61.659 28.4004 60.7624 28.4004 59.6704C28.4004 58.5784 27.4986 57.6818 26.4004 57.6818ZM26.4004 60.5227C25.9316 60.5227 25.5432 60.1365 25.5432 59.6704C25.5432 59.2043 25.9316 58.8181 26.4004 58.8181C26.8691 58.8181 27.2575 59.2043 27.2575 59.6704C27.2575 60.1365 26.8691 60.5227 26.4004 60.5227Z" fill="white"/>
<path d="M21.1094 57.6818C20.0111 57.6818 19.1094 58.5784 19.1094 59.6704C19.1094 60.7624 20.0111 61.659 21.1094 61.659C22.2076 61.659 23.1094 60.7624 23.1094 59.6704C23.1094 58.5784 22.2165 57.6818 21.1094 57.6818ZM21.1094 60.5227C20.6406 60.5227 20.2522 60.1365 20.2522 59.6704C20.2522 59.2043 20.6406 58.8181 21.1094 58.8181C21.5781 58.8181 21.9665 59.2043 21.9665 59.6704C21.9665 60.1365 21.5893 60.5227 21.1094 60.5227Z" fill="white"/>
<path d="M56.0329 39.6466V30.9886C56.0329 30.0453 55.2673 29.2841 54.3186 29.2841H28.0329C27.0842 29.2841 26.3186 30.0453 26.3186 30.9886V52.1824C20.6155 52.9325 16.3301 55.9999 16.3301 59.671C16.3301 61.0004 16.9015 62.2966 17.9752 63.4441L18.4774 66.8531C18.4997 67.0129 18.5912 67.1483 18.7185 67.2393C18.81 67.3081 18.9238 67.3414 19.0377 67.3414C19.0823 67.3414 19.118 67.3414 19.1627 67.3303L23.0823 66.4558C24.1001 66.7843 25.1961 67.0129 26.3167 67.1594V77.0225C26.3167 77.9658 27.0823 78.727 28.031 78.727H54.3167C55.2654 78.727 56.031 77.9658 56.031 77.0225L56.0332 53.7049C56.3301 53.625 56.627 53.5451 56.9239 53.4541L60.8435 54.3286C60.8882 54.3397 60.9239 54.3397 60.9685 54.3397C61.0824 54.3397 61.1962 54.3064 61.2877 54.2376C61.4127 54.1466 61.5042 54.0112 61.5288 53.8514L62.031 50.4423C63.0935 49.2948 63.6761 47.9987 63.6761 46.6692C63.6694 43.5331 60.5266 40.83 56.0332 39.6471L56.0329 39.6466ZM27.4615 30.9886C27.4615 30.6712 27.7137 30.4204 28.0329 30.4204H54.3186C54.6378 30.4204 54.8901 30.6712 54.8901 30.9886V33.5454H47.8969C47.0978 33.5454 46.3433 33.8517 45.7719 34.4199C45.417 34.7728 44.9482 34.9659 44.446 34.9659H37.8969C37.3946 34.9659 36.9259 34.7728 36.571 34.4199C36.0107 33.8517 35.2562 33.5454 34.4572 33.5454H27.464L27.4615 30.9886ZM23.2785 65.3193H23.2338C23.2004 65.3082 23.1646 65.3082 23.12 65.3082H23.0062H22.9615L19.5106 66.0806L19.0753 63.1153C19.0753 63.0932 19.0642 63.0821 19.053 63.0576C19.0418 63.0243 19.0307 62.9888 19.0195 62.9555C18.9972 62.9223 18.9749 62.8756 18.9503 62.8535C18.9392 62.8424 18.9392 62.8202 18.928 62.8091C17.9682 61.8325 17.4771 60.776 17.4771 59.673C17.4771 56.4903 21.5217 53.8423 26.8474 53.2633C26.8585 53.2633 26.8697 53.2744 26.892 53.2744C26.9255 53.2744 26.9612 53.2633 27.0059 53.2522C27.6688 53.1834 28.3429 53.139 29.0393 53.139C35.4165 53.139 40.6039 56.071 40.6039 59.6731C40.6039 63.2753 35.4164 66.2072 29.0393 66.2072C27.017 66.205 25.0285 65.8986 23.2785 65.3193ZM54.8899 77.0113C54.8899 77.3287 54.6377 77.5795 54.3185 77.5795H28.0328C27.7136 77.5795 27.4613 77.3287 27.4613 77.0113V73.0341H54.8899V77.0113ZM54.8899 71.8977H27.4613V67.2724C27.9881 67.3056 28.5126 67.3301 29.0394 67.3301C36.0463 67.3301 41.7469 63.8877 41.7469 59.6596C41.7469 55.4315 36.0437 51.9891 29.0394 51.9891C28.5015 51.9891 27.9769 52.0113 27.4613 52.0579V34.6818H34.4545C34.9567 34.6818 35.4254 34.8749 35.7804 35.2278C36.3518 35.796 37.1062 36.1023 37.9054 36.1023H44.4545C45.2536 36.1023 46.0081 35.796 46.5796 35.2278C46.9367 34.8749 47.4054 34.6818 47.8965 34.6818H54.8897V39.387C53.6553 39.1473 52.3294 39.0119 50.9589 39.0119C43.952 39.0119 38.2514 42.4543 38.2514 46.6824C38.2514 50.9105 43.9546 54.3529 50.9589 54.3529C52.2959 54.3529 53.6218 54.2175 54.8897 53.9667L54.8899 71.8977ZM61.0728 49.8074C61.0616 49.8184 61.0504 49.8406 61.0393 49.8517C61.017 49.885 60.9946 49.9205 60.9701 49.9538C60.9589 49.9871 60.9478 50.0226 60.9366 50.0559C60.9366 50.0781 60.9143 50.0892 60.9143 50.1136L60.479 53.0789L57.0281 52.3065H56.9835H56.8696C56.8361 52.3065 56.7893 52.3065 56.7558 52.3176H56.7223C54.9745 52.8968 52.9857 53.1921 50.9634 53.1921C44.5863 53.1921 39.3989 50.2601 39.3989 46.658C39.3989 43.0558 44.5863 40.1239 50.9634 40.1239C52.4255 40.1239 53.8206 40.2837 55.113 40.5678C55.2157 40.6477 55.3295 40.7032 55.4679 40.7032C55.5125 40.7032 55.5482 40.6921 55.5929 40.681C59.6732 41.693 62.5306 43.988 62.5306 46.669C62.5261 47.7832 62.0438 48.8286 61.0728 49.8074Z" fill="white"/>
<path d="M44.2523 64.671H43.3371C43.0179 64.671 42.7656 64.9218 42.7656 65.2392C42.7656 65.5566 43.0179 65.8074 43.3371 65.8074H44.2523C44.5714 65.8074 44.8237 65.5566 44.8237 65.2392C44.8237 64.9196 44.5603 64.671 44.2523 64.671Z" fill="white"/>
<path d="M45.6113 65.2392C45.6113 65.5566 45.8636 65.8074 46.1828 65.8074H52.7988C53.118 65.8074 53.3702 65.5566 53.3702 65.2392C53.3702 64.9218 53.118 64.671 52.7988 64.671H46.1828C45.8636 64.671 45.6113 64.9307 45.6113 65.2392Z" fill="white"/>
<path d="M44.2523 66.6597H43.3371C43.0179 66.6597 42.7656 66.9105 42.7656 67.2278C42.7656 67.5452 43.0179 67.796 43.3371 67.796H44.2523C44.5714 67.796 44.8237 67.5452 44.8237 67.2278C44.8237 66.9082 44.5603 66.6597 44.2523 66.6597Z" fill="white"/>
<path d="M52.7988 66.6597H46.1828C45.8636 66.6597 45.6113 66.9105 45.6113 67.2278C45.6113 67.5452 45.8636 67.796 46.1828 67.796H52.7988C53.118 67.796 53.3702 67.5452 53.3702 67.2278C53.3702 66.9082 53.109 66.6597 52.7988 66.6597Z" fill="white"/>
<path d="M44.2523 68.6483H43.3371C43.0179 68.6483 42.7656 68.8991 42.7656 69.2165C42.7656 69.5339 43.0179 69.7847 43.3371 69.7847H44.2523C44.5714 69.7847 44.8237 69.5339 44.8237 69.2165C44.8237 68.8969 44.5603 68.6483 44.2523 68.6483Z" fill="white"/>
<path d="M52.7988 68.6483H46.1828C45.8636 68.6483 45.6113 68.8991 45.6113 69.2165C45.6113 69.5339 45.8636 69.7847 46.1828 69.7847H52.7988C53.118 69.7847 53.3702 69.5339 53.3702 69.2165C53.3702 68.8969 53.109 68.6483 52.7988 68.6483Z" fill="white"/>
</g>
<defs>
<linearGradient id="paint0_linear_188_2146" x1="20" y1="27.7499" x2="115" y2="160.25" gradientUnits="userSpaceOnUse">
<stop stop-color="#9FD6DC"/>
<stop offset="1" stop-color="#008B94"/>
</linearGradient>
<clipPath id="clip0_188_2146">
<rect width="48" height="50" fill="white" transform="translate(16 29)"/>
</clipPath>
</defs>
</svg>
