<svg width="216" height="64" viewBox="0 0 216 64" fill="none" xmlns="http://www.w3.org/2000/svg">
<g clip-path="url(#clip0_188_2340)">
<path d="M208 0H8C3.58172 0 0 3.58172 0 8V56C0 60.4183 3.58172 64 8 64H208C212.418 64 216 60.4183 216 56V8C216 3.58172 212.418 0 208 0Z" fill="white"/>
<path d="M208 1.28C209.782 1.28 211.492 1.988 212.752 3.24824C214.012 4.50849 214.72 6.21775 214.72 8V56C214.72 57.7823 214.012 59.4915 212.752 60.7518C211.492 62.012 209.782 62.72 208 62.72H8C6.21775 62.72 4.50849 62.012 3.24824 60.7518C1.988 59.4915 1.28 57.7823 1.28 56V8C1.28 6.21775 1.988 4.50849 3.24824 3.24824C4.50849 1.988 6.21775 1.28 8 1.28H208ZM208 0H8C5.87827 0 3.84344 0.842855 2.34315 2.34315C0.842855 3.84344 0 5.87827 0 8V56C0 58.1217 0.842855 60.1566 2.34315 61.6569C3.84344 63.1571 5.87827 64 8 64H208C210.122 64 212.157 63.1571 213.657 61.6569C215.157 60.1566 216 58.1217 216 56V8C216 5.87827 215.157 3.84344 213.657 2.34315C212.157 0.842855 210.122 0 208 0Z" fill="#23304C"/>
<path d="M109.024 34.8004C107.68 34.8067 106.369 35.2109 105.255 35.9619C104.141 36.7129 103.274 37.7772 102.764 39.0202C102.255 40.2633 102.125 41.6296 102.391 42.9465C102.657 44.2635 103.307 45.4721 104.259 46.4199C105.211 47.3677 106.423 48.0122 107.741 48.272C109.059 48.5318 110.425 48.3953 111.666 47.8796C112.906 47.364 113.966 46.4925 114.712 45.3749C115.458 44.2574 115.856 42.9439 115.856 41.6004C115.869 40.7011 115.701 39.8083 115.362 38.9753C115.023 38.1423 114.519 37.3861 113.882 36.7516C113.245 36.1171 112.486 35.6174 111.651 35.2822C110.817 34.947 109.923 34.7831 109.024 34.8004ZM109.024 45.7284C108.198 45.7862 107.373 45.5941 106.658 45.177C105.942 44.76 105.368 44.1373 105.011 43.3899C104.654 42.6425 104.53 41.805 104.655 40.9862C104.781 40.1675 105.149 39.4053 105.714 38.7988C106.278 38.1924 107.011 37.7697 107.819 37.5856C108.626 37.4016 109.471 37.4648 110.242 37.7669C111.013 38.0691 111.676 38.5963 112.143 39.2799C112.611 39.9636 112.862 40.7721 112.864 41.6004C112.89 42.1252 112.81 42.6499 112.63 43.1435C112.45 43.637 112.173 44.0895 111.815 44.4743C111.457 44.859 111.025 45.1682 110.546 45.3836C110.067 45.599 109.549 45.7162 109.024 45.7284ZM94.128 34.8004C92.7838 34.8035 91.4707 35.205 90.3545 35.9542C89.2384 36.7033 88.3693 37.7664 87.8571 39.0092C87.3448 40.252 87.2124 41.6188 87.4766 42.9368C87.7408 44.2548 88.3897 45.4649 89.3413 46.4143C90.293 47.3637 91.5046 48.0098 92.8233 48.2709C94.1419 48.532 95.5083 48.3964 96.7499 47.8812C97.9916 47.3661 99.0526 46.4945 99.7991 45.3766C100.546 44.2587 100.944 42.9446 100.944 41.6004C100.957 40.7011 100.789 39.8083 100.45 38.9753C100.111 38.1423 99.6075 37.3861 98.97 36.7516C98.3326 36.1171 97.574 35.6174 96.7394 35.2822C95.9048 34.947 95.0112 34.7831 94.112 34.8004H94.128ZM94.128 45.7284C93.3013 45.7894 92.4754 45.6002 91.7578 45.1853C91.0402 44.7704 90.4641 44.149 90.1046 43.4021C89.745 42.6553 89.6187 41.8174 89.7419 40.9977C89.8652 40.178 90.2324 39.4144 90.7957 38.8063C91.359 38.1982 92.0924 37.7738 92.9003 37.5883C93.7082 37.4028 94.5532 37.4648 95.3254 37.7663C96.0975 38.0678 96.7611 38.5947 97.2295 39.2786C97.698 39.9624 97.9498 40.7715 97.952 41.6004C97.9778 42.1252 97.8982 42.6499 97.718 43.1435C97.5378 43.637 97.2605 44.0895 96.9026 44.4743C96.5448 44.859 96.1135 45.1682 95.6342 45.3836C95.1549 45.599 94.6373 45.7162 94.112 45.7284H94.128ZM76.384 36.8964V39.7764H83.296C83.1876 41.1329 82.6238 42.4129 81.696 43.4084C81.0045 44.1128 80.1732 44.6646 79.2556 45.0283C78.3379 45.3921 77.3543 45.5597 76.368 45.5204C74.3312 45.5204 72.3777 44.7112 70.9374 43.271C69.4972 41.8307 68.688 39.8772 68.688 37.8404C68.688 35.8035 69.4972 33.8501 70.9374 32.4098C72.3777 30.9695 74.3312 30.1604 76.368 30.1604C78.3165 30.1286 80.198 30.8709 81.6 32.2244L83.632 30.1924C82.6856 29.234 81.5564 28.4754 80.3114 27.9615C79.0664 27.4475 77.7309 27.1887 76.384 27.2004C74.9616 27.145 73.5427 27.3774 72.2122 27.8835C70.8818 28.3897 69.6672 29.1592 68.6412 30.146C67.6153 31.1328 66.7991 32.3165 66.2416 33.6263C65.6841 34.9361 65.3967 36.3449 65.3967 37.7684C65.3967 39.1919 65.6841 40.6007 66.2416 41.9105C66.7991 43.2202 67.6153 44.404 68.6412 45.3908C69.6672 46.3776 70.8818 47.1471 72.2122 47.6532C73.5427 48.1594 74.9616 48.3917 76.384 48.3364C77.7535 48.3983 79.1204 48.1661 80.3927 47.6555C81.665 47.145 82.8132 46.3678 83.76 45.3764C85.4363 43.5347 86.3313 41.1136 86.256 38.6244C86.2612 38.018 86.2076 37.4125 86.096 36.8164L76.384 36.8964ZM148.88 39.1364C148.463 37.9088 147.682 36.8368 146.642 36.0625C145.602 35.2882 144.352 34.8481 143.056 34.8004C142.181 34.7987 141.315 34.9765 140.511 35.3228C139.707 35.6692 138.983 36.1767 138.383 36.814C137.783 37.4514 137.32 38.2049 137.023 39.0282C136.726 39.8515 136.601 40.7269 136.656 41.6004C136.637 42.4946 136.798 43.3837 137.129 44.2143C137.461 45.0449 137.957 45.8002 138.587 46.4349C139.218 47.0696 139.969 47.5708 140.798 47.9085C141.626 48.2462 142.514 48.4135 143.408 48.4004C144.527 48.4064 145.63 48.1348 146.619 47.6098C147.607 47.0849 148.45 46.323 149.072 45.3924L146.752 43.7924C146.406 44.3696 145.916 44.8471 145.329 45.1781C144.743 45.509 144.081 45.6821 143.408 45.6804C142.715 45.7068 142.03 45.5241 141.442 45.156C140.854 44.7879 140.391 44.2514 140.112 43.6164L149.216 39.8564L148.88 39.1364ZM139.6 41.4084C139.568 40.9135 139.634 40.4171 139.796 39.9483C139.958 39.4795 140.212 39.0477 140.542 38.6781C140.873 38.3086 141.274 38.0088 141.722 37.7963C142.171 37.5837 142.657 37.4627 143.152 37.4404C143.668 37.4064 144.183 37.5247 144.632 37.7807C145.082 38.0367 145.446 38.4191 145.68 38.8804L139.6 41.4084ZM132.208 48.0004H135.2V28.0004H132.208V48.0004ZM127.312 36.3204H127.2C126.749 35.8162 126.197 35.4131 125.579 35.1373C124.961 34.8616 124.292 34.7195 123.616 34.7204C121.868 34.8052 120.219 35.5595 119.011 36.8269C117.804 38.0944 117.13 39.7778 117.13 41.5284C117.13 43.2789 117.804 44.9624 119.011 46.2299C120.219 47.4973 121.868 48.2516 123.616 48.3364C124.294 48.3478 124.966 48.2104 125.586 47.934C126.205 47.6576 126.756 47.2488 127.2 46.7364H127.296V47.7124C127.296 50.3204 125.904 51.7124 123.664 51.7124C122.918 51.6949 122.194 51.4559 121.584 51.0256C120.974 50.5954 120.507 49.9934 120.24 49.2964L117.632 50.3844C118.123 51.5786 118.959 52.5988 120.034 53.3144C121.109 54.0299 122.373 54.4081 123.664 54.4004C127.168 54.4004 130.064 52.3364 130.064 47.3124V35.2004H127.312V36.3204ZM123.888 45.7284C122.856 45.6374 121.895 45.1632 121.196 44.3991C120.496 43.635 120.108 42.6365 120.108 41.6004C120.108 40.5643 120.496 39.5658 121.196 38.8017C121.895 38.0376 122.856 37.5633 123.888 37.4724C124.4 37.4986 124.901 37.6271 125.362 37.85C125.824 38.073 126.236 38.3861 126.574 38.7708C126.913 39.1555 127.171 39.604 127.333 40.09C127.496 40.5759 127.559 41.0895 127.52 41.6004C127.564 42.1135 127.503 42.6301 127.341 43.119C127.179 43.6079 126.92 44.059 126.579 44.4448C126.238 44.8307 125.822 45.1434 125.357 45.364C124.892 45.5847 124.387 45.7086 123.872 45.7284H123.888ZM162.896 28.0004H155.744V48.0004H158.736V40.4164H162.912C163.765 40.4776 164.621 40.3626 165.427 40.0784C166.234 39.7941 166.973 39.3468 167.598 38.7644C168.224 38.1819 168.723 37.4768 169.065 36.6929C169.406 35.9091 169.582 35.0633 169.582 34.2084C169.582 33.3535 169.406 32.5077 169.065 31.7239C168.723 30.94 168.224 30.2349 167.598 29.6524C166.973 29.0699 166.234 28.6226 165.427 28.3384C164.621 28.0542 163.765 27.9391 162.912 28.0004H162.896ZM162.896 37.6004H158.72V30.7844H162.96C163.87 30.7844 164.743 31.146 165.387 31.7896C166.03 32.4332 166.392 33.3062 166.392 34.2164C166.392 35.1266 166.03 35.9996 165.387 36.6432C164.743 37.2868 163.87 37.6484 162.96 37.6484L162.896 37.6004ZM181.344 34.7204C180.255 34.6553 179.17 34.9098 178.224 35.4527C177.277 35.9957 176.51 36.8033 176.016 37.7764L178.672 38.8804C178.934 38.3977 179.33 38.0016 179.813 37.7403C180.296 37.479 180.845 37.3636 181.392 37.4084C181.772 37.364 182.157 37.3957 182.524 37.5017C182.892 37.6077 183.234 37.7857 183.532 38.0255C183.83 38.2653 184.077 38.562 184.259 38.8983C184.441 39.2347 184.554 39.6039 184.592 39.9844V40.1924C183.631 39.6836 182.559 39.4198 181.472 39.4244C178.608 39.4244 175.712 41.0244 175.712 43.9204C175.74 44.5379 175.892 45.1434 176.158 45.7013C176.425 46.2591 176.8 46.7579 177.263 47.1681C177.725 47.5783 178.265 47.8916 178.851 48.0895C179.436 48.2874 180.056 48.366 180.672 48.3204C181.425 48.3745 182.18 48.2248 182.855 47.8869C183.531 47.5491 184.103 47.0356 184.512 46.4004H184.608V48.0004H187.488V40.3044C187.488 36.8004 184.832 34.7684 181.424 34.7684L181.344 34.7204ZM180.976 45.6804C180 45.6804 178.64 45.1844 178.64 43.9844C178.64 42.3844 180.336 41.8564 181.84 41.8564C182.791 41.8329 183.73 42.065 184.56 42.5284C184.46 43.3946 184.05 44.1955 183.406 44.7836C182.762 45.3716 181.928 45.7071 181.056 45.7284L180.976 45.6804ZM197.984 35.2004L194.56 43.8724H194.464L190.912 35.2004H187.712L193.04 47.3284L190 54.0644H193.12L201.312 35.2004H197.984ZM171.088 48.0004H174.08V28.0004H171.088V48.0004Z" fill="#23304C"/>
<path d="M67.3765 22.8322H66.1925V19.6322H67.2005C67.6601 19.1451 68.0072 18.5631 68.2173 17.9273C68.4274 17.2914 68.4954 16.6172 68.4165 15.9522V11.2002H74.8165V19.6162H75.8885V22.8162H74.7045V20.8002H67.3765V22.8322ZM69.6005 16.0002C69.6751 17.2908 69.3572 18.5738 68.6885 19.6802H73.4885V12.3842H69.6005V16.0002ZM85.4565 19.5522C84.5211 20.4823 83.2556 21.0045 81.9365 21.0045C80.6173 21.0045 79.3518 20.4823 78.4165 19.5522C77.5073 18.5898 77.0008 17.3161 77.0008 15.9922C77.0008 14.6683 77.5073 13.3946 78.4165 12.4322C78.8775 11.9678 79.4259 11.5992 80.03 11.3477C80.6341 11.0961 81.2821 10.9666 81.9365 10.9666C82.5909 10.9666 83.2388 11.0961 83.8429 11.3477C84.447 11.5992 84.9954 11.9678 85.4565 12.4322C86.3692 13.3927 86.8782 14.6671 86.8782 15.9922C86.8782 17.3172 86.3692 18.5917 85.4565 19.5522ZM79.3285 18.7522C80.0212 19.442 80.9589 19.8293 81.9365 19.8293C82.914 19.8293 83.8518 19.442 84.5445 18.7522C85.2281 17.9986 85.6067 17.0176 85.6067 16.0002C85.6067 14.9828 85.2281 14.0018 84.5445 13.2482C83.8518 12.5584 82.914 12.1711 81.9365 12.1711C80.9589 12.1711 80.0212 12.5584 79.3285 13.2482C78.6449 14.0018 78.2662 14.9828 78.2662 16.0002C78.2662 17.0176 78.6449 17.9986 79.3285 18.7522ZM93.0885 21.0082C92.4279 21.0213 91.7716 20.9006 91.159 20.6534C90.5463 20.4062 89.99 20.0375 89.5236 19.5696C89.0572 19.1017 88.6904 18.5443 88.4451 17.9308C88.1998 17.3174 88.0812 16.6607 88.0965 16.0002C88.0812 15.3397 88.1998 14.683 88.4451 14.0696C88.6904 13.4561 89.0572 12.8987 89.5236 12.4308C89.99 11.9629 90.5463 11.5942 91.159 11.347C91.7716 11.0997 92.4279 10.9791 93.0885 10.9922C93.758 10.9756 94.4225 11.111 95.0321 11.3881C95.6418 11.6652 96.1807 12.0769 96.6085 12.5922L95.7445 13.4242C95.4284 13.023 95.021 12.7032 94.5561 12.4917C94.0913 12.2802 93.5826 12.1829 93.0725 12.2082C92.5814 12.1954 92.0927 12.2824 91.6362 12.4639C91.1797 12.6454 90.7648 12.9177 90.4165 13.2642C89.7228 14.0223 89.338 15.0126 89.338 16.0402C89.338 17.0678 89.7228 18.0581 90.4165 18.8162C90.7648 19.1627 91.1797 19.4349 91.6362 19.6164C92.0927 19.7979 92.5814 19.885 93.0725 19.8722C93.6356 19.8672 94.1906 19.7368 94.6971 19.4904C95.2036 19.2441 95.6488 18.8881 96.0005 18.4482L96.8645 19.3122C96.429 19.8404 95.8828 20.2664 95.2645 20.5602C94.5815 20.8695 93.8381 21.0226 93.0885 21.0082ZM101.888 20.8002H100.656V12.3842H97.9685V11.2002H104.56V12.3842H101.888V20.8002ZM113.04 11.2002L109.408 19.2962C109.263 19.7751 108.973 20.1971 108.577 20.5037C108.182 20.8104 107.701 20.9867 107.2 21.0082C106.87 21.004 106.543 20.9333 106.24 20.8002L106.56 19.6642C106.755 19.7774 106.975 19.8381 107.2 19.8402C107.436 19.8579 107.671 19.802 107.872 19.6802C108.065 19.517 108.214 19.3079 108.304 19.0722L108.656 18.3042L105.456 11.2162H106.912L109.28 16.7202L111.584 11.2002H113.04ZM114.432 20.8002V11.2002H121.376V20.8002H120.144V12.3842H115.664V20.8002H114.432ZM123.568 20.8002V11.2002H124.8V15.3122H129.6V11.2002H130.832V20.8002H129.6V16.4642H124.8V20.8002H123.568ZM140.896 19.5522C139.961 20.4823 138.696 21.0045 137.376 21.0045C136.057 21.0045 134.792 20.4823 133.856 19.5522C132.947 18.5898 132.441 17.3161 132.441 15.9922C132.441 14.6683 132.947 13.3946 133.856 12.4322C134.318 11.9678 134.866 11.5992 135.47 11.3477C136.074 11.0961 136.722 10.9666 137.376 10.9666C138.031 10.9666 138.679 11.0961 139.283 11.3477C139.887 11.5992 140.435 11.9678 140.896 12.4322C141.809 13.3927 142.318 14.6671 142.318 15.9922C142.318 17.3172 141.809 18.5917 140.896 19.5522ZM134.768 18.7522C135.461 19.442 136.399 19.8293 137.376 19.8293C138.354 19.8293 139.292 19.442 139.984 18.7522C140.668 17.9986 141.047 17.0176 141.047 16.0002C141.047 14.9828 140.668 14.0018 139.984 13.2482C139.292 12.5584 138.354 12.1711 137.376 12.1711C136.399 12.1711 135.461 12.5584 134.768 13.2482C134.085 14.0018 133.706 14.9828 133.706 16.0002C133.706 17.0176 134.085 17.9986 134.768 18.7522ZM147.344 20.8002V11.2002H150.816C151.537 11.1866 152.236 11.45 152.768 11.9362C153.036 12.1682 153.249 12.4562 153.393 12.7796C153.536 13.1031 153.607 13.4543 153.6 13.8082C153.608 14.2347 153.485 14.6533 153.248 15.0082C153.014 15.3529 152.686 15.6246 152.304 15.7922C152.769 15.9458 153.176 16.2358 153.472 16.6242C153.78 17.0162 153.944 17.5019 153.936 18.0002C153.945 18.369 153.871 18.7352 153.722 19.0725C153.573 19.4099 153.351 19.7102 153.072 19.9522C152.515 20.4661 151.782 20.7467 151.024 20.7362L147.344 20.8002ZM148.576 15.3122H150.816C151.026 15.3209 151.234 15.2839 151.428 15.2038C151.621 15.1237 151.795 15.0023 151.936 14.8482C152.078 14.7197 152.192 14.5641 152.273 14.3905C152.353 14.2169 152.397 14.0289 152.403 13.8378C152.409 13.6466 152.377 13.4563 152.307 13.278C152.238 13.0997 152.134 12.9372 152 12.8002C151.867 12.6489 151.701 12.529 151.516 12.4488C151.331 12.3686 151.13 12.3302 150.928 12.3362H148.64L148.576 15.3122ZM148.576 19.6162H151.056C151.273 19.6235 151.489 19.5828 151.688 19.497C151.887 19.4113 152.065 19.2826 152.208 19.1202C152.491 18.8276 152.651 18.4386 152.656 18.0322C152.656 17.6078 152.488 17.2009 152.188 16.9008C151.888 16.6008 151.481 16.4322 151.056 16.4322H148.624L148.576 19.6162Z" fill="#23304C"/>
<path fill-rule="evenodd" clip-rule="evenodd" d="M81.9365 11.1266C81.3032 11.1266 80.6762 11.252 80.0915 11.4954C79.5075 11.7385 78.9773 12.0947 78.5314 12.5435C77.6512 13.476 77.1608 14.7098 77.1608 15.9922C77.1608 17.2744 77.651 18.508 78.5311 19.4405C79.4363 20.3397 80.6605 20.8445 81.9365 20.8445C83.2126 20.8445 84.4368 20.3397 85.342 19.4403C86.2256 18.5097 86.7182 17.2755 86.7182 15.9922C86.7182 14.7087 86.2254 13.4743 85.3417 12.5437C84.8958 12.0948 84.3655 11.7386 83.7814 11.4954C83.1968 11.252 82.5698 11.1266 81.9365 11.1266ZM79.9685 11.2C80.5921 10.9403 81.261 10.8066 81.9365 10.8066C82.612 10.8066 83.2808 10.9403 83.9044 11.2C84.528 11.4596 85.0941 11.8401 85.57 12.3195L85.5725 12.3219C86.5135 13.3122 87.0382 14.6261 87.0382 15.9922C87.0382 17.3583 86.5135 18.6721 85.5725 19.6624L85.5693 19.6657C84.604 20.6257 83.2979 21.1645 81.9365 21.1645C80.5751 21.1645 79.269 20.6256 78.3036 19.6656L78.3001 19.6621C77.3629 18.6701 76.8408 17.357 76.8408 15.9922C76.8408 14.6274 77.3629 13.3144 78.3002 12.3223L78.3029 12.3194C78.7788 11.84 79.3449 11.4596 79.9685 11.2ZM137.376 11.1266C136.743 11.1266 136.116 11.252 135.532 11.4954C134.948 11.7385 134.417 12.0947 133.971 12.5434C133.091 13.4759 132.601 14.7098 132.601 15.9922C132.601 17.2744 133.091 18.5081 133.971 19.4405C134.876 20.3397 136.1 20.8445 137.376 20.8445C138.653 20.8445 139.877 20.3396 140.782 19.4402C141.666 18.5097 142.158 17.2754 142.158 15.9922C142.158 14.7088 141.665 13.4744 140.782 12.5437C140.336 12.0948 139.806 11.7386 139.221 11.4954C138.637 11.252 138.01 11.1266 137.376 11.1266ZM135.409 11.2C136.032 10.9403 136.701 10.8066 137.376 10.8066C138.052 10.8066 138.721 10.9403 139.344 11.2C139.968 11.4596 140.534 11.8401 141.01 12.3195L141.012 12.3219C141.953 13.3122 142.478 14.6261 142.478 15.9922C142.478 17.3583 141.953 18.6721 141.012 19.6624L141.009 19.6657C140.044 20.6257 138.738 21.1645 137.376 21.1645C136.015 21.1645 134.709 20.6256 133.744 19.6656L133.74 19.6621C132.803 18.6701 132.281 17.357 132.281 15.9922C132.281 14.6274 132.803 13.3144 133.74 12.3223L133.743 12.3194C134.219 11.84 134.785 11.4596 135.409 11.2ZM94.9659 11.5337C94.3783 11.2666 93.7377 11.1362 93.0924 11.1521L93.0853 11.1523C92.4464 11.1396 91.8115 11.2562 91.2188 11.4953C90.6262 11.7345 90.0881 12.0911 89.637 12.5437C89.1858 12.9963 88.8309 13.5356 88.5937 14.129C88.3564 14.7223 88.2417 15.3576 88.2564 15.9965L88.2566 16.0039C88.2419 16.6428 88.3564 17.278 88.5937 17.8714C88.8309 18.4648 89.1858 19.004 89.637 19.4567C90.0881 19.9093 90.6262 20.2659 91.2188 20.505C91.8115 20.7442 92.4464 20.8609 93.0853 20.8482L93.0885 21.0082L93.0915 20.8482C93.8169 20.8621 94.5362 20.7142 95.1971 20.4151C95.75 20.1522 96.2431 19.7797 96.6469 19.3209L96.0109 18.6849C95.6641 19.0807 95.2414 19.4037 94.7671 19.6343C94.2396 19.8908 93.6617 20.0267 93.0753 20.0322C92.563 20.0453 92.0533 19.9545 91.5771 19.7651C91.1005 19.5756 90.6672 19.2914 90.3036 18.9296L90.2983 18.9243C89.5776 18.1368 89.178 17.1078 89.178 16.0402C89.178 14.9726 89.5777 13.9437 90.2984 13.1562L90.3035 13.1506C90.6671 12.7889 91.1005 12.5048 91.5771 12.3153C92.0519 12.1265 92.5599 12.0356 93.0706 12.0481C93.6042 12.0226 94.1362 12.1248 94.6224 12.3461C95.0569 12.5438 95.4437 12.8316 95.7574 13.1896L96.3886 12.5818C95.993 12.1375 95.5085 11.7804 94.9659 11.5337ZM93.0885 21.1682C92.4075 21.1813 91.7308 21.0567 91.0991 20.8018C90.4664 20.5465 89.892 20.1658 89.4103 19.6826C88.9287 19.1994 88.5498 18.6237 88.2965 17.9902C88.0437 17.3579 87.9212 16.681 87.9364 16.0002C87.9212 15.3194 88.0437 14.6425 88.2965 14.0102C88.5498 13.3767 88.9287 12.801 89.4103 12.3178C89.892 11.8346 90.4664 11.4539 91.0991 11.1986C91.7306 10.9437 92.4072 10.8191 93.0881 10.8322C93.7805 10.8155 94.4678 10.9558 95.0984 11.2424C95.73 11.5296 96.2884 11.9561 96.7316 12.49L96.8265 12.6044L95.7281 13.662L95.6188 13.5232C95.3186 13.142 94.9315 12.8383 94.4899 12.6373C94.0483 12.4364 93.565 12.344 93.0804 12.368L93.0683 12.3686C92.5988 12.3564 92.1318 12.4391 91.6953 12.6126C91.2601 12.7857 90.8644 13.045 90.532 13.375C89.8669 14.1032 89.498 15.0538 89.498 16.0402C89.498 17.0265 89.8669 17.9772 90.532 18.7054C90.8644 19.0354 91.2601 19.2947 91.6953 19.4678C92.1318 19.6413 92.5988 19.7244 93.0683 19.7122L93.071 19.7122C93.6104 19.7074 94.142 19.5825 94.6271 19.3466C95.1122 19.1106 95.5387 18.7696 95.8755 18.3483L95.9872 18.2086L97.0804 19.3018L96.9879 19.414C96.5375 19.9603 95.9726 20.4009 95.3331 20.7047L95.3305 20.706C94.6268 21.0247 93.8609 21.1826 93.0885 21.1682ZM152.661 12.0543C152.158 11.5958 151.499 11.3473 150.819 11.3602L150.816 11.3602H147.504V20.6374L151.022 20.5762L151.027 20.5762C151.744 20.5861 152.437 20.3207 152.964 19.8346L152.967 19.8313C153.228 19.6048 153.436 19.3237 153.576 19.0078C153.716 18.6919 153.784 18.3491 153.777 18.0037L153.776 17.9978C153.783 17.5362 153.632 17.0862 153.347 16.723L153.345 16.7213C153.068 16.3585 152.688 16.0876 152.254 15.9441L151.859 15.8131L152.24 15.6457C152.594 15.4902 152.898 15.2384 153.116 14.9188C153.334 14.5912 153.447 14.2047 153.44 13.811V13.8051C153.447 13.4746 153.381 13.1467 153.246 12.8446C153.112 12.5426 152.913 12.2737 152.664 12.057L152.661 12.0543ZM152.875 11.8167C152.313 11.3041 151.576 11.0262 150.815 11.0402H147.184V20.963L151.022 20.8962L151.025 20.8962C151.822 20.9066 152.593 20.6115 153.179 20.0714C153.475 19.8143 153.71 19.4954 153.868 19.1373C154.027 18.7793 154.105 18.391 154.096 17.9997L154.096 18.0026L153.936 18.0002L154.096 17.9966L154.096 17.9997C154.104 17.4661 153.928 16.9461 153.599 16.5262C153.354 16.2063 153.039 15.9491 152.681 15.7733C152.957 15.5995 153.195 15.3701 153.381 15.0983L153.382 15.097C153.636 14.7158 153.768 14.2663 153.76 13.8083L153.76 13.8113L153.6 13.8082L153.76 13.8054L153.76 13.8083C153.767 13.432 153.692 13.0587 153.539 12.7147C153.386 12.3704 153.159 12.0639 152.875 11.8167ZM68.2565 11.0402H74.9765V19.4562H76.0485V22.9762H74.5445V20.9602H67.5365V22.9922H66.0325V19.4722H67.1307C67.5512 19.0126 67.8698 18.469 68.0654 17.8771C68.2682 17.2635 68.3338 16.6128 68.2576 15.971L68.2565 15.9616V11.0402ZM68.5765 11.3602V15.9428C68.6564 16.628 68.5857 17.3224 68.3692 17.9775C68.1518 18.6356 67.7925 19.2379 67.3168 19.742L67.2695 19.7922H66.3525V22.6722H67.2165V20.6402H74.8645V22.6562H75.7285V19.7762H74.6565V11.3602H68.5765ZM97.8085 11.0402H104.72V12.5442H102.048V20.9602H100.496V12.5442H97.8085V11.0402ZM98.1285 11.3602V12.2242H100.816V20.6402H101.728V12.2242H104.4V11.3602H98.1285ZM111.478 11.0402H113.288L109.559 19.3525C109.403 19.8591 109.094 20.3053 108.675 20.6302C108.253 20.9572 107.74 21.1451 107.207 21.168L107.198 21.1684C106.846 21.1639 106.499 21.0884 106.176 20.9467L106.049 20.8907L106.462 19.422L106.641 19.5259C106.811 19.6252 107.005 19.6783 107.202 19.6802L107.213 19.6803C107.41 19.6952 107.608 19.6498 107.779 19.5497C107.946 19.4051 108.076 19.2214 108.155 19.0147L108.159 19.0054L108.481 18.3037L105.209 11.0562H107.018L109.278 16.3102L111.478 11.0402ZM111.691 11.3602L109.283 17.1302L106.807 11.3762H105.704L108.832 18.3047L108.452 19.1344C108.351 19.3933 108.188 19.6229 107.976 19.8023L107.966 19.8106L107.955 19.8172C107.726 19.9552 107.46 20.0191 107.194 20.0001C107.011 19.9977 106.831 19.961 106.662 19.8923L106.433 20.7056C106.678 20.796 106.937 20.8443 107.198 20.8481C107.663 20.8272 108.111 20.6627 108.479 20.3773C108.848 20.0909 109.12 19.6969 109.255 19.2497L109.258 19.24L112.793 11.3602H111.691ZM114.272 11.0402H121.536V20.9602H119.984V12.5442H115.824V20.9602H114.272V11.0402ZM114.592 11.3602V20.6402H115.504V12.2242H120.304V20.6402H121.216V11.3602H114.592ZM123.408 11.0402H124.96V15.1522H129.44V11.0402H130.992V20.9602H129.44V16.6242H124.96V20.9602H123.408V11.0402ZM123.728 11.3602V20.6402H124.64V16.3042H129.76V20.6402H130.672V11.3602H129.76V15.4722H124.64V11.3602H123.728ZM79.2156 13.1348C79.9382 12.4152 80.9166 12.0111 81.9365 12.0111C82.9564 12.0111 83.9347 12.4152 84.6574 13.1348L84.6631 13.1406C85.3734 13.9236 85.7667 14.943 85.7667 16.0002C85.7667 17.0574 85.3733 18.0767 84.663 18.8597L84.6575 18.8657C83.9348 19.5854 82.9564 19.9893 81.9365 19.9893C80.9166 19.9893 79.9382 19.5852 79.2156 18.8656L79.3285 18.7522L79.21 18.8597C78.4997 18.0767 78.1062 17.0574 78.1062 16.0002C78.1062 14.943 78.4997 13.9237 79.21 13.1407L79.2156 13.1348ZM79.4442 18.6417C80.1067 19.2998 81.0026 19.6693 81.9365 19.6693C82.8704 19.6693 83.7663 19.2998 84.4287 18.6417C85.0839 17.9179 85.4467 16.9765 85.4467 16.0002C85.4467 15.0239 85.0839 14.0824 84.4287 13.3587C83.7663 12.7006 82.8704 12.3311 81.9365 12.3311C81.0026 12.3311 80.1067 12.7006 79.4442 13.3587C78.7891 14.0824 78.4262 15.0239 78.4262 16.0002C78.4262 16.9765 78.7891 17.9179 79.4442 18.6417ZM134.656 13.1348C135.378 12.4152 136.357 12.0111 137.376 12.0111C138.396 12.0111 139.375 12.4152 140.097 13.1348L140.103 13.1406C140.813 13.9236 141.207 14.943 141.207 16.0002C141.207 17.0574 140.813 18.0767 140.103 18.8597L140.098 18.8657C139.375 19.5854 138.396 19.9893 137.376 19.9893C136.357 19.9893 135.378 19.5852 134.656 18.8656L134.768 18.7522L134.65 18.8597C133.94 18.0767 133.546 17.0574 133.546 16.0002C133.546 14.943 133.94 13.9237 134.65 13.1407L134.656 13.1348ZM134.884 18.6417C135.547 19.2998 136.443 19.6693 137.376 19.6693C138.31 19.6693 139.206 19.2998 139.869 18.6417C140.524 17.918 140.887 16.9765 140.887 16.0002C140.887 15.0239 140.524 14.0824 139.869 13.3587C139.206 12.7006 138.31 12.3311 137.376 12.3311C136.443 12.3311 135.547 12.7006 134.884 13.3587C134.229 14.0824 133.866 15.0239 133.866 16.0002C133.866 16.9765 134.229 17.918 134.884 18.6417ZM150.926 12.1762C151.151 12.1698 151.374 12.2128 151.58 12.302C151.785 12.391 151.969 12.5239 152.118 12.6914C152.265 12.8433 152.38 13.023 152.457 13.2201C152.534 13.4184 152.57 13.6302 152.563 13.8428C152.557 14.0554 152.507 14.2645 152.418 14.4576C152.33 14.6485 152.204 14.8199 152.049 14.9618C151.893 15.1305 151.702 15.2635 151.489 15.3516C151.275 15.4402 151.045 15.4813 150.813 15.4722H148.413L148.484 12.1762H150.926ZM151.453 12.5956C151.289 12.5248 151.112 12.4908 150.933 12.4961L150.928 12.4962H148.797L148.74 15.1522H150.823C151.009 15.16 151.195 15.1272 151.366 15.056C151.538 14.9847 151.693 14.8769 151.819 14.7399L151.824 14.7345L151.829 14.7297C151.955 14.6156 152.056 14.4775 152.127 14.3234C152.199 14.1693 152.238 14.0024 152.243 13.8328C152.249 13.6631 152.22 13.4941 152.158 13.3359C152.097 13.1777 152.004 13.0334 151.886 12.9118L151.88 12.9063C151.762 12.7726 151.616 12.6665 151.453 12.5956ZM69.4405 12.2242H73.6485V19.8402H68.4048L68.5515 19.5974C69.2035 18.5187 69.5135 17.2678 69.4407 16.0094L69.4402 16.0002L69.4405 12.2242ZM69.7605 12.5442V15.9956C69.8306 17.2236 69.5541 18.4446 68.9651 19.5202H73.3285V12.5442H69.7605ZM148.467 16.2722H151.056C151.523 16.2722 151.971 16.4576 152.301 16.7877C152.631 17.1177 152.816 17.5654 152.816 18.0322L152.816 18.0344C152.81 18.4804 152.635 18.9073 152.326 19.2289C152.167 19.4077 151.971 19.5494 151.751 19.644C151.531 19.7387 151.293 19.7838 151.054 19.7762H148.414L148.467 16.2722ZM148.782 16.5922L148.739 19.4562H151.062C151.255 19.4627 151.447 19.4265 151.625 19.3501C151.802 19.2736 151.961 19.159 152.089 19.0142L152.093 19.009C152.347 18.746 152.491 18.3964 152.496 18.031C152.496 17.6495 152.344 17.2837 152.075 17.014C151.805 16.7439 151.438 16.5922 151.056 16.5922H148.782Z" fill="#23304C"/>
<path d="M16.8726 52.3174L36.4736 31.9874L16.889 11.6938C16.3659 12.0098 16.0422 12.7413 16.0422 13.6989V50.3318C16.0493 51.2894 16.3613 51.9674 16.8726 52.3174Z" fill="#23304C"/>
<path d="M37.1758 31.426L43.0143 25.3695L19.238 11.847C18.8376 11.6057 18.3828 11.4782 17.9197 11.4775L37.1734 31.4235L37.1758 31.426Z" fill="#23304C"/>
<path d="M37.1756 32.5513L17.8608 52.5848C18.3456 52.5932 18.8231 52.4619 19.2401 52.2057L43.0634 38.6466L37.1756 32.5513Z" fill="#23304C"/>
<path d="M51.6277 30.2764L43.7156 25.7681L37.7175 31.9898L43.7601 38.2504L51.6253 33.7543C53.2979 32.7991 53.2978 31.2267 51.6277 30.2764Z" fill="#23304C"/>
</g>
<defs>
<clipPath id="clip0_188_2340">
<rect width="216" height="64" fill="white"/>
</clipPath>
</defs>
</svg>
