<svg width="19" height="19" viewBox="0 0 19 19" fill="none" xmlns="http://www.w3.org/2000/svg">
<path d="M9.5 0.5C11.8869 0.5 14.1761 1.44821 15.864 3.13604C17.5518 4.82387 18.5 7.11305 18.5 9.5C18.5 11.8869 17.5518 14.1761 15.864 15.864C14.1761 17.5518 11.8869 18.5 9.5 18.5C7.11305 18.5 4.82387 17.5518 3.13604 15.864C1.44821 14.1761 0.5 11.8869 0.5 9.5C0.5 7.11305 1.44821 4.82387 3.13604 3.13604C4.82387 1.44821 7.11305 0.5 9.5 0.5ZM10.8499 6.02561C11.5184 6.02561 12.061 5.5615 12.061 4.87369C12.061 4.18588 11.5171 3.72177 10.8499 3.72177C10.1814 3.72177 9.64142 4.18588 9.64142 4.87369C9.64142 5.5615 10.1814 6.02561 10.8499 6.02561ZM11.0852 13.2598C11.0852 13.1222 11.1327 12.7648 11.1057 12.5617L10.049 13.7779C9.83041 14.008 9.55657 14.1675 9.42801 14.125C9.36968 14.1036 9.32092 14.062 9.29052 14.0078C9.26012 13.9536 9.25006 13.8903 9.26216 13.8293L11.0235 8.26516C11.1675 7.55935 10.7715 6.91526 9.93197 6.83298C9.04618 6.83298 7.74255 7.73163 6.94933 8.87197C6.94933 9.00825 6.92361 9.34765 6.95061 9.55078L8.00611 8.3333C8.22466 8.10574 8.47922 7.94504 8.60778 7.98875C8.67112 8.01149 8.72302 8.05815 8.75235 8.11872C8.78167 8.17929 8.78608 8.24894 8.76462 8.31273L7.01875 13.8499C6.81691 14.4979 7.19874 15.133 8.12438 15.2769C9.48714 15.2769 10.2919 14.4002 11.0865 13.2598H11.0852Z" fill="white"/>
</svg>
