<svg width="216" height="64" viewBox="0 0 216 64" fill="none" xmlns="http://www.w3.org/2000/svg">
<g clip-path="url(#clip0_188_2339)">
<path d="M208 0H8C3.58172 0 0 3.58172 0 8V56C0 60.4183 3.58172 64 8 64H208C212.418 64 216 60.4183 216 56V8C216 3.58172 212.418 0 208 0Z" fill="white"/>
<path d="M208 1.28C209.782 1.28 211.492 1.988 212.752 3.24824C214.012 4.50849 214.72 6.21775 214.72 8V56C214.72 57.7823 214.012 59.4915 212.752 60.7518C211.492 62.012 209.782 62.72 208 62.72H8C6.21775 62.72 4.50849 62.012 3.24824 60.7518C1.988 59.4915 1.28 57.7823 1.28 56V8C1.28 6.21775 1.988 4.50849 3.24824 3.24824C4.50849 1.988 6.21775 1.28 8 1.28H208ZM208 0H8C5.87827 0 3.84344 0.842855 2.34315 2.34315C0.842855 3.84344 0 5.87827 0 8V56C0 58.1217 0.842855 60.1566 2.34315 61.6569C3.84344 63.1571 5.87827 64 8 64H208C210.122 64 212.157 63.1571 213.657 61.6569C215.157 60.1566 216 58.1217 216 56V8C216 5.87827 215.157 3.84344 213.657 2.34315C212.157 0.842855 210.122 0 208 0Z" fill="#23304C"/>
<path d="M68.1865 35.036H71.9295L75.4255 44.593H75.4825L78.9405 35.036H82.7025V48.488H80.3275V37.677H80.2895L76.2045 48.488H74.5325L70.5045 37.677H70.4665V48.488H68.1865V35.036Z" fill="#23304C"/>
<path d="M85.589 39.368H87.869V48.488H85.589V39.368ZM85.266 36.271C85.266 35.9037 85.399 35.587 85.665 35.321C85.9437 35.0423 86.292 34.903 86.71 34.903C87.128 34.903 87.4764 35.036 87.755 35.302C88.0464 35.5553 88.192 35.8783 88.192 36.271C88.192 36.6637 88.0464 36.993 87.755 37.259C87.4764 37.5123 87.128 37.639 86.71 37.639C86.292 37.639 85.9437 37.506 85.665 37.24C85.399 36.9613 85.266 36.6383 85.266 36.271Z" fill="#23304C"/>
<path d="M96.867 41.895C96.6897 41.6417 96.4237 41.4327 96.069 41.268C95.7144 41.0907 95.3534 41.002 94.986 41.002C94.568 41.002 94.2007 41.0907 93.884 41.268C93.5674 41.4327 93.3014 41.6543 93.086 41.933C92.8834 42.2117 92.7314 42.5283 92.63 42.883C92.5287 43.225 92.478 43.5733 92.478 43.928C92.478 44.2827 92.5287 44.6373 92.63 44.992C92.744 45.334 92.9087 45.6443 93.124 45.923C93.3394 46.2017 93.6054 46.4297 93.922 46.607C94.2514 46.7717 94.6314 46.854 95.062 46.854C95.4167 46.854 95.7714 46.7843 96.126 46.645C96.4807 46.5057 96.7657 46.303 96.981 46.037L98.406 47.481C98.026 47.8863 97.5384 48.203 96.943 48.431C96.3604 48.6463 95.727 48.754 95.043 48.754C94.3717 48.754 93.732 48.6463 93.124 48.431C92.5287 48.2157 92.003 47.899 91.547 47.481C91.1037 47.063 90.749 46.5563 90.483 45.961C90.2297 45.3657 90.103 44.688 90.103 43.928C90.103 43.1933 90.2297 42.5283 90.483 41.933C90.749 41.3377 91.1037 40.831 91.547 40.413C91.9904 39.995 92.5034 39.672 93.086 39.444C93.6814 39.216 94.3147 39.102 94.986 39.102C95.6574 39.102 96.3034 39.2287 96.924 39.482C97.5574 39.7353 98.0577 40.0837 98.425 40.527L96.867 41.895Z" fill="#23304C"/>
<path d="M99.9124 39.368H102.097V40.888H102.135C102.389 40.356 102.743 39.9253 103.199 39.596C103.655 39.2667 104.187 39.102 104.795 39.102C104.884 39.102 104.979 39.1083 105.08 39.121C105.182 39.121 105.27 39.1337 105.346 39.159V41.249C105.194 41.211 105.061 41.1857 104.947 41.173C104.846 41.1603 104.745 41.154 104.643 41.154C104.124 41.154 103.706 41.249 103.389 41.439C103.073 41.629 102.826 41.857 102.648 42.123C102.471 42.389 102.351 42.6613 102.287 42.94C102.224 43.2187 102.192 43.4403 102.192 43.605V48.488H99.9124V39.368Z" fill="#23304C"/>
<path d="M105.967 43.89C105.967 43.168 106.094 42.5157 106.347 41.933C106.613 41.3377 106.968 40.831 107.411 40.413C107.855 39.995 108.38 39.672 108.988 39.444C109.596 39.216 110.242 39.102 110.926 39.102C111.61 39.102 112.256 39.216 112.864 39.444C113.472 39.672 113.998 39.995 114.441 40.413C114.885 40.831 115.233 41.3377 115.486 41.933C115.752 42.5157 115.885 43.168 115.885 43.89C115.885 44.612 115.752 45.2707 115.486 45.866C115.233 46.4613 114.885 46.9743 114.441 47.405C113.998 47.823 113.472 48.1523 112.864 48.393C112.256 48.6337 111.61 48.754 110.926 48.754C110.242 48.754 109.596 48.6337 108.988 48.393C108.38 48.1523 107.855 47.823 107.411 47.405C106.968 46.9743 106.613 46.4613 106.347 45.866C106.094 45.2707 105.967 44.612 105.967 43.89ZM108.285 43.89C108.285 44.2447 108.336 44.5993 108.437 44.954C108.551 45.3087 108.716 45.6253 108.931 45.904C109.147 46.1827 109.419 46.4107 109.748 46.588C110.078 46.7653 110.47 46.854 110.926 46.854C111.382 46.854 111.775 46.7653 112.104 46.588C112.434 46.4107 112.706 46.1827 112.921 45.904C113.137 45.6253 113.295 45.3087 113.396 44.954C113.51 44.5993 113.567 44.2447 113.567 43.89C113.567 43.5353 113.51 43.187 113.396 42.845C113.295 42.4903 113.137 42.1737 112.921 41.895C112.706 41.6163 112.434 41.3947 112.104 41.23C111.775 41.0527 111.382 40.964 110.926 40.964C110.47 40.964 110.078 41.0527 109.748 41.23C109.419 41.3947 109.147 41.6163 108.931 41.895C108.716 42.1737 108.551 42.4903 108.437 42.845C108.336 43.187 108.285 43.5353 108.285 43.89Z" fill="#23304C"/>
<path d="M123.093 41.8C122.89 41.534 122.612 41.306 122.257 41.116C121.902 40.9133 121.516 40.812 121.098 40.812C120.731 40.812 120.395 40.888 120.091 41.04C119.787 41.192 119.635 41.4453 119.635 41.8C119.635 42.1547 119.8 42.408 120.129 42.56C120.471 42.6993 120.965 42.845 121.611 42.997C121.953 43.073 122.295 43.1743 122.637 43.301C122.992 43.4277 123.308 43.5987 123.587 43.814C123.878 44.0167 124.113 44.2763 124.29 44.593C124.467 44.897 124.556 45.2707 124.556 45.714C124.556 46.2713 124.448 46.7463 124.233 47.139C124.03 47.519 123.752 47.8293 123.397 48.07C123.055 48.3107 122.65 48.4817 122.181 48.583C121.725 48.697 121.25 48.754 120.756 48.754C120.047 48.754 119.356 48.6273 118.685 48.374C118.014 48.108 117.456 47.7343 117.013 47.253L118.514 45.847C118.767 46.1763 119.097 46.4487 119.502 46.664C119.907 46.8793 120.357 46.987 120.851 46.987C121.016 46.987 121.18 46.968 121.345 46.93C121.522 46.892 121.681 46.835 121.82 46.759C121.972 46.6703 122.092 46.5563 122.181 46.417C122.27 46.2777 122.314 46.1067 122.314 45.904C122.314 45.524 122.137 45.2517 121.782 45.087C121.44 44.9223 120.921 44.7577 120.224 44.593C119.882 44.517 119.546 44.422 119.217 44.308C118.9 44.1813 118.615 44.023 118.362 43.833C118.109 43.6303 117.906 43.3833 117.754 43.092C117.602 42.8007 117.526 42.4397 117.526 42.009C117.526 41.5023 117.627 41.0653 117.83 40.698C118.045 40.3307 118.324 40.033 118.666 39.805C119.008 39.5643 119.394 39.387 119.825 39.273C120.256 39.159 120.699 39.102 121.155 39.102C121.814 39.102 122.453 39.216 123.074 39.444C123.707 39.672 124.208 40.0203 124.575 40.489L123.093 41.8Z" fill="#23304C"/>
<path d="M126.006 43.89C126.006 43.168 126.133 42.5157 126.386 41.933C126.652 41.3377 127.007 40.831 127.45 40.413C127.894 39.995 128.419 39.672 129.027 39.444C129.635 39.216 130.281 39.102 130.965 39.102C131.649 39.102 132.295 39.216 132.903 39.444C133.511 39.672 134.037 39.995 134.48 40.413C134.924 40.831 135.272 41.3377 135.525 41.933C135.791 42.5157 135.924 43.168 135.924 43.89C135.924 44.612 135.791 45.2707 135.525 45.866C135.272 46.4613 134.924 46.9743 134.48 47.405C134.037 47.823 133.511 48.1523 132.903 48.393C132.295 48.6337 131.649 48.754 130.965 48.754C130.281 48.754 129.635 48.6337 129.027 48.393C128.419 48.1523 127.894 47.823 127.45 47.405C127.007 46.9743 126.652 46.4613 126.386 45.866C126.133 45.2707 126.006 44.612 126.006 43.89ZM128.324 43.89C128.324 44.2447 128.375 44.5993 128.476 44.954C128.59 45.3087 128.755 45.6253 128.97 45.904C129.186 46.1827 129.458 46.4107 129.787 46.588C130.117 46.7653 130.509 46.854 130.965 46.854C131.421 46.854 131.814 46.7653 132.143 46.588C132.473 46.4107 132.745 46.1827 132.96 45.904C133.176 45.6253 133.334 45.3087 133.435 44.954C133.549 44.5993 133.606 44.2447 133.606 43.89C133.606 43.5353 133.549 43.187 133.435 42.845C133.334 42.4903 133.176 42.1737 132.96 41.895C132.745 41.6163 132.473 41.3947 132.143 41.23C131.814 41.0527 131.421 40.964 130.965 40.964C130.509 40.964 130.117 41.0527 129.787 41.23C129.458 41.3947 129.186 41.6163 128.97 41.895C128.755 42.1737 128.59 42.4903 128.476 42.845C128.375 43.187 128.324 43.5353 128.324 43.89Z" fill="#23304C"/>
<path d="M138.496 41.192H136.767V39.368H138.496V38.019C138.496 37.4743 138.553 36.955 138.667 36.461C138.794 35.9543 138.996 35.511 139.275 35.131C139.566 34.751 139.946 34.4533 140.415 34.238C140.884 34.01 141.473 33.896 142.182 33.896C142.435 33.896 142.644 33.9087 142.809 33.934C142.986 33.9467 143.164 33.9783 143.341 34.029L143.189 35.967C143.062 35.929 142.923 35.8973 142.771 35.872C142.632 35.8467 142.48 35.834 142.315 35.834C141.986 35.834 141.72 35.8973 141.517 36.024C141.314 36.1507 141.156 36.3153 141.042 36.518C140.941 36.7207 140.871 36.9423 140.833 37.183C140.795 37.4237 140.776 37.658 140.776 37.886V39.368H142.885V41.192H140.776V48.488H138.496V41.192Z" fill="#23304C"/>
<path d="M142.706 41.192V39.368H144.302V36.727H146.544V39.368H148.824V41.192H146.544V45.429C146.544 45.8343 146.614 46.17 146.753 46.436C146.905 46.702 147.234 46.835 147.741 46.835C147.893 46.835 148.058 46.8223 148.235 46.797C148.412 46.759 148.571 46.7083 148.71 46.645L148.786 48.431C148.583 48.507 148.343 48.564 148.064 48.602C147.785 48.6527 147.519 48.678 147.266 48.678C146.658 48.678 146.164 48.5957 145.784 48.431C145.404 48.2537 145.1 48.0193 144.872 47.728C144.657 47.424 144.505 47.082 144.416 46.702C144.34 46.3093 144.302 45.8913 144.302 45.448V41.192H142.706Z" fill="#23304C"/>
<path d="M162.197 37.848C161.944 37.5187 161.583 37.2463 161.114 37.031C160.658 36.803 160.196 36.689 159.727 36.689C159.448 36.689 159.17 36.727 158.891 36.803C158.612 36.8663 158.359 36.974 158.131 37.126C157.903 37.2653 157.713 37.4553 157.561 37.696C157.422 37.924 157.352 38.2027 157.352 38.532C157.352 38.836 157.415 39.0957 157.542 39.311C157.669 39.5263 157.84 39.71 158.055 39.862C158.283 40.014 158.555 40.147 158.872 40.261C159.189 40.375 159.537 40.489 159.917 40.603C160.348 40.7423 160.791 40.9007 161.247 41.078C161.716 41.2553 162.14 41.4897 162.52 41.781C162.913 42.0723 163.229 42.4397 163.47 42.883C163.723 43.3263 163.85 43.8773 163.85 44.536C163.85 45.258 163.717 45.8913 163.451 46.436C163.185 46.968 162.83 47.4113 162.387 47.766C161.944 48.1207 161.424 48.3867 160.829 48.564C160.234 48.7413 159.607 48.83 158.948 48.83C158.074 48.83 157.219 48.6717 156.383 48.355C155.547 48.0257 154.863 47.5443 154.331 46.911L156.041 45.315C156.37 45.771 156.807 46.132 157.352 46.398C157.909 46.664 158.454 46.797 158.986 46.797C159.265 46.797 159.55 46.7653 159.841 46.702C160.132 46.626 160.392 46.5057 160.62 46.341C160.861 46.1763 161.051 45.9737 161.19 45.733C161.342 45.4797 161.418 45.1693 161.418 44.802C161.418 44.4473 161.336 44.156 161.171 43.928C161.006 43.6873 160.785 43.4847 160.506 43.32C160.227 43.1427 159.898 42.9907 159.518 42.864C159.138 42.7373 158.739 42.6043 158.321 42.465C157.916 42.3383 157.51 42.1863 157.105 42.009C156.7 41.8317 156.332 41.5973 156.003 41.306C155.686 41.0147 155.427 40.66 155.224 40.242C155.021 39.8113 154.92 39.2793 154.92 38.646C154.92 37.962 155.059 37.373 155.338 36.879C155.629 36.385 156.003 35.9797 156.459 35.663C156.928 35.3337 157.453 35.093 158.036 34.941C158.631 34.7763 159.233 34.694 159.841 34.694C160.525 34.694 161.215 34.8143 161.912 35.055C162.621 35.2957 163.236 35.6567 163.755 36.138L162.197 37.848Z" fill="#23304C"/>
<path d="M164.712 41.192V39.368H166.308V36.727H168.55V39.368H170.83V41.192H168.55V45.429C168.55 45.8343 168.619 46.17 168.759 46.436C168.911 46.702 169.24 46.835 169.747 46.835C169.899 46.835 170.063 46.8223 170.241 46.797C170.418 46.759 170.576 46.7083 170.716 46.645L170.792 48.431C170.589 48.507 170.348 48.564 170.07 48.602C169.791 48.6527 169.525 48.678 169.272 48.678C168.664 48.678 168.17 48.5957 167.79 48.431C167.41 48.2537 167.106 48.0193 166.878 47.728C166.662 47.424 166.51 47.082 166.422 46.702C166.346 46.3093 166.308 45.8913 166.308 45.448V41.192H164.712Z" fill="#23304C"/>
<path d="M171.948 43.89C171.948 43.168 172.074 42.5157 172.328 41.933C172.594 41.3377 172.948 40.831 173.392 40.413C173.835 39.995 174.361 39.672 174.969 39.444C175.577 39.216 176.223 39.102 176.907 39.102C177.591 39.102 178.237 39.216 178.845 39.444C179.453 39.672 179.978 39.995 180.422 40.413C180.865 40.831 181.213 41.3377 181.467 41.933C181.733 42.5157 181.866 43.168 181.866 43.89C181.866 44.612 181.733 45.2707 181.467 45.866C181.213 46.4613 180.865 46.9743 180.422 47.405C179.978 47.823 179.453 48.1523 178.845 48.393C178.237 48.6337 177.591 48.754 176.907 48.754C176.223 48.754 175.577 48.6337 174.969 48.393C174.361 48.1523 173.835 47.823 173.392 47.405C172.948 46.9743 172.594 46.4613 172.328 45.866C172.074 45.2707 171.948 44.612 171.948 43.89ZM174.266 43.89C174.266 44.2447 174.316 44.5993 174.418 44.954C174.532 45.3087 174.696 45.6253 174.912 45.904C175.127 46.1827 175.399 46.4107 175.729 46.588C176.058 46.7653 176.451 46.854 176.907 46.854C177.363 46.854 177.755 46.7653 178.085 46.588C178.414 46.4107 178.686 46.1827 178.902 45.904C179.117 45.6253 179.275 45.3087 179.377 44.954C179.491 44.5993 179.548 44.2447 179.548 43.89C179.548 43.5353 179.491 43.187 179.377 42.845C179.275 42.4903 179.117 42.1737 178.902 41.895C178.686 41.6163 178.414 41.3947 178.085 41.23C177.755 41.0527 177.363 40.964 176.907 40.964C176.451 40.964 176.058 41.0527 175.729 41.23C175.399 41.3947 175.127 41.6163 174.912 41.895C174.696 42.1737 174.532 42.4903 174.418 42.845C174.316 43.187 174.266 43.5353 174.266 43.89Z" fill="#23304C"/>
<path d="M184.076 39.368H186.261V40.888H186.299C186.553 40.356 186.907 39.9253 187.363 39.596C187.819 39.2667 188.351 39.102 188.959 39.102C189.048 39.102 189.143 39.1083 189.244 39.121C189.346 39.121 189.434 39.1337 189.51 39.159V41.249C189.358 41.211 189.225 41.1857 189.111 41.173C189.01 41.1603 188.909 41.154 188.807 41.154C188.288 41.154 187.87 41.249 187.553 41.439C187.237 41.629 186.99 41.857 186.812 42.123C186.635 42.389 186.515 42.6613 186.451 42.94C186.388 43.2187 186.356 43.4403 186.356 43.605V48.488H184.076V39.368Z" fill="#23304C"/>
<path d="M197.085 43.016C197.085 42.7247 197.041 42.446 196.952 42.18C196.876 41.914 196.75 41.6797 196.572 41.477C196.395 41.2743 196.167 41.116 195.888 41.002C195.622 40.8753 195.306 40.812 194.938 40.812C194.254 40.812 193.672 41.021 193.19 41.439C192.722 41.8443 192.462 42.37 192.411 43.016H197.085ZM199.365 44.042C199.365 44.1433 199.365 44.2447 199.365 44.346C199.365 44.4473 199.359 44.5487 199.346 44.65H192.411C192.437 44.9793 192.519 45.2833 192.658 45.562C192.81 45.828 193.007 46.0623 193.247 46.265C193.488 46.455 193.76 46.607 194.064 46.721C194.368 46.835 194.685 46.892 195.014 46.892C195.584 46.892 196.066 46.7907 196.458 46.588C196.851 46.3727 197.174 46.0813 197.427 45.714L198.947 46.93C198.048 48.146 196.743 48.754 195.033 48.754C194.324 48.754 193.672 48.6463 193.076 48.431C192.481 48.203 191.962 47.8863 191.518 47.481C191.088 47.0757 190.746 46.5817 190.492 45.999C190.252 45.4037 190.131 44.7323 190.131 43.985C190.131 43.2503 190.252 42.5853 190.492 41.99C190.746 41.382 191.088 40.869 191.518 40.451C191.949 40.0203 192.456 39.691 193.038 39.463C193.634 39.2223 194.273 39.102 194.957 39.102C195.591 39.102 196.173 39.2097 196.705 39.425C197.25 39.6277 197.719 39.938 198.111 40.356C198.504 40.7613 198.808 41.2743 199.023 41.895C199.251 42.503 199.365 43.2187 199.365 44.042Z" fill="#23304C"/>
<path d="M77.4077 28.4961H76.0327V25.4883H68.1733V28.4961H66.7983V24.207H67.6812C68.452 22.8945 69.1187 21.3034 69.6812 19.4336C70.2437 17.5638 70.5744 15.7747 70.6733 14.0664H75.9546V24.207H77.4077V28.4961ZM74.5249 24.207V15.3633H71.939C71.84 16.6602 71.5223 18.1732 70.9858 19.9023C70.4546 21.6315 69.8582 23.0664 69.1968 24.207H74.5249Z" fill="#23304C"/>
<path d="M86.5796 21.1836C86.5796 22.5846 86.2254 23.6784 85.5171 24.4648C84.8088 25.2513 83.8296 25.6445 82.5796 25.6445C81.8035 25.6445 81.116 25.4648 80.5171 25.1055C79.9181 24.7409 79.4572 24.2201 79.1343 23.543C78.8114 22.8659 78.6499 22.0794 78.6499 21.1836C78.6499 19.7878 78.9989 18.7018 79.6968 17.9258C80.3947 17.1445 81.3739 16.7539 82.6343 16.7539C83.8426 16.7539 84.8009 17.1523 85.5093 17.9492C86.2228 18.7409 86.5796 19.819 86.5796 21.1836ZM80.103 21.1836C80.103 22.2617 80.314 23.082 80.7358 23.6445C81.1629 24.2018 81.7905 24.4805 82.6187 24.4805C83.4364 24.4805 84.0588 24.2018 84.4858 23.6445C84.9129 23.082 85.1265 22.2617 85.1265 21.1836C85.1265 20.1055 84.9103 19.2956 84.478 18.7539C84.0509 18.207 83.4233 17.9336 82.5952 17.9336C80.9338 17.9336 80.103 19.0169 80.103 21.1836Z" fill="#23304C"/>
<path d="M92.2515 25.6445C91.0171 25.6445 90.0562 25.2669 89.3687 24.5117C88.6812 23.7513 88.3374 22.6628 88.3374 21.2461C88.3374 19.8086 88.6838 18.7018 89.3765 17.9258C90.0744 17.1445 91.0666 16.7539 92.353 16.7539C92.7697 16.7539 93.1812 16.7982 93.5874 16.8867C93.9989 16.9701 94.3374 17.0794 94.603 17.2148L94.1733 18.3867C93.4494 18.1159 92.8322 17.9805 92.3218 17.9805C91.4572 17.9805 90.8192 18.2539 90.4077 18.8008C89.9963 19.3424 89.7905 20.1523 89.7905 21.2305C89.7905 22.2669 89.9963 23.0612 90.4077 23.6133C90.8192 24.1602 91.4285 24.4336 92.2358 24.4336C92.991 24.4336 93.7332 24.2669 94.4624 23.9336V25.1836C93.8687 25.4909 93.1317 25.6445 92.2515 25.6445Z" fill="#23304C"/>
<path d="M102.423 18.0977H99.6187V25.4883H98.228V18.0977H95.4624V16.9102H102.423V18.0977Z" fill="#23304C"/>
<path d="M102.783 16.9102H104.291L106.142 21.793C106.533 22.8555 106.772 23.6341 106.861 24.1289H106.923C106.97 23.9362 107.077 23.5768 107.244 23.0508C107.41 22.5195 107.551 22.0951 107.666 21.7773L109.408 16.9102H110.923L107.228 26.6758C106.869 27.6237 106.442 28.3034 105.947 28.7148C105.452 29.1263 104.84 29.332 104.111 29.332C103.72 29.332 103.332 29.2878 102.947 29.1992V28.082C103.207 28.1445 103.52 28.1758 103.884 28.1758C104.332 28.1758 104.712 28.0508 105.025 27.8008C105.337 27.556 105.593 27.1758 105.791 26.6602L106.236 25.5195L102.783 16.9102Z" fill="#23304C"/>
<path d="M113.689 25.4883H112.283V16.9102H119.533V25.4883H118.126V18.1133H113.689V25.4883Z" fill="#23304C"/>
<path d="M123.673 16.9102V20.4805H128.33V16.9102H129.736V25.4883H128.33V21.668H123.673V25.4883H122.267V16.9102H123.673Z" fill="#23304C"/>
<path d="M139.923 21.1836C139.923 22.5846 139.569 23.6784 138.861 24.4648C138.153 25.2513 137.173 25.6445 135.923 25.6445C135.147 25.6445 134.46 25.4648 133.861 25.1055C133.262 24.7409 132.801 24.2201 132.478 23.543C132.155 22.8659 131.994 22.0794 131.994 21.1836C131.994 19.7878 132.343 18.7018 133.041 17.9258C133.738 17.1445 134.718 16.7539 135.978 16.7539C137.186 16.7539 138.145 17.1523 138.853 17.9492C139.567 18.7409 139.923 19.819 139.923 21.1836ZM133.447 21.1836C133.447 22.2617 133.658 23.082 134.08 23.6445C134.507 24.2018 135.134 24.4805 135.962 24.4805C136.78 24.4805 137.403 24.2018 137.83 23.6445C138.257 23.082 138.47 22.2617 138.47 21.1836C138.47 20.1055 138.254 19.2956 137.822 18.7539C137.395 18.207 136.767 17.9336 135.939 17.9336C134.278 17.9336 133.447 19.0169 133.447 21.1836Z" fill="#23304C"/>
<path d="M153.212 19.0742C153.212 19.6263 153.056 20.0482 152.744 20.3398C152.431 20.6263 151.986 20.8216 151.408 20.9258V20.9961C152.132 21.0951 152.658 21.3112 152.986 21.6445C153.319 21.9727 153.486 22.4154 153.486 22.9727C153.486 23.7852 153.186 24.4076 152.587 24.8398C151.994 25.2721 151.137 25.4883 150.017 25.4883H146.158V16.9102H150.001C152.142 16.9102 153.212 17.6315 153.212 19.0742ZM152.08 22.8945C152.08 22.4154 151.892 22.0794 151.517 21.8867C151.142 21.694 150.593 21.5977 149.869 21.5977H147.564V24.3555H149.9C151.353 24.3555 152.08 23.8685 152.08 22.8945ZM151.837 19.1992C151.837 18.7982 151.681 18.5117 151.369 18.3398C151.061 18.168 150.595 18.082 149.97 18.082H147.564V20.4336H149.712C150.478 20.4336 151.022 20.3398 151.345 20.1523C151.673 19.9596 151.837 19.6419 151.837 19.1992Z" fill="#23304C"/>
<path d="M30.8122 14.0525C32.0115 12.7485 33.7076 11.9057 35.4755 11.7624C35.9067 11.7428 36.3399 11.746 36.7711 11.7637C38.524 11.8998 40.2037 12.7334 41.3998 14.0179C42.6129 15.2964 43.3222 17.0343 43.3569 18.7957C43.3654 19.6313 43.3582 20.4669 43.3602 21.3025C43.862 21.3025 44.3632 21.3025 44.8644 21.3025C44.8605 20.425 44.873 19.5476 44.8579 18.6708C44.8069 17.2241 44.2899 15.8114 43.438 14.646C44.9017 15.7237 45.9271 17.3726 46.2464 19.1622C46.3838 19.8669 46.3668 20.5879 46.3648 21.3025C49.2824 21.3031 52.2001 21.3025 55.1184 21.3025C55.1203 29.5784 55.121 37.8536 55.119 46.1295C55.1177 46.6327 55.1694 47.1548 54.9908 47.6377C54.6505 48.6703 53.6429 49.4705 52.5449 49.4882C41.5961 49.4849 30.6473 49.4869 19.6991 49.4869C18.3499 49.4685 17.1499 48.258 17.125 46.9121C17.1263 38.3758 17.1243 29.8388 17.1257 21.3025C21.0457 21.3025 24.9651 21.3025 28.8845 21.3025C28.8865 20.4682 28.8799 19.6339 28.8878 18.8003C28.9199 17.0533 29.618 15.3285 30.8122 14.0525ZM35.1948 13.3053C33.896 13.5134 32.679 14.1893 31.8126 15.1793C30.9123 16.1974 30.3947 17.5447 30.3862 18.9037C30.3829 19.7033 30.3855 20.5029 30.3849 21.3025C30.8861 21.3025 31.388 21.3025 31.8892 21.3025C31.8905 20.8752 31.882 20.4479 31.9036 20.0206C31.9546 19.1576 32.1633 18.3043 32.5154 17.5146C33.1887 15.8964 34.7558 14.7474 36.4492 14.3921C37.5838 14.1559 38.8028 14.2606 39.8562 14.7559C39.5055 14.7357 39.1555 14.699 38.8041 14.7252C37.4372 14.7972 36.1043 15.3815 35.1261 16.3407C34.0818 17.3484 33.4478 18.767 33.3948 20.2176C33.3843 20.5788 33.3915 20.9406 33.3896 21.3025C36.213 21.3025 39.0364 21.3025 41.8604 21.3025C41.8604 20.5677 41.8604 19.8328 41.8604 19.0987C41.8617 18.1892 41.6491 17.2797 41.2401 16.4677C40.6441 15.2722 39.6259 14.294 38.4076 13.747C37.4091 13.2981 36.2784 13.1195 35.1948 13.3053ZM28.1478 27.4269C28.1484 29.8813 28.1464 32.335 28.1491 34.7894C30.6021 34.7874 33.0558 34.7888 35.5096 34.7881C35.5096 32.335 35.5083 29.8813 35.5102 27.4276C33.0558 27.4256 30.6021 27.4276 28.1478 27.4269ZM36.7345 27.4283C36.7384 29.8813 36.7358 32.335 36.7358 34.7881C39.1888 34.7894 41.6426 34.7868 44.0956 34.7901C44.0995 32.335 44.0969 29.8807 44.0969 27.4263C41.6425 27.4283 39.1888 27.4243 36.7345 27.4283ZM28.1491 36.0143C28.1471 38.468 28.1491 40.9224 28.1478 43.3761C30.6021 43.3755 33.0565 43.3787 35.5102 43.3748C35.5083 40.9217 35.5102 38.468 35.5096 36.015C33.0558 36.0143 30.6021 36.0156 28.1491 36.0143ZM36.7358 36.015C36.7358 38.4687 36.7371 40.9217 36.7351 43.3755C39.1895 43.3781 41.6432 43.3761 44.0976 43.3761C44.0969 40.9224 44.0995 38.468 44.0963 36.0143C41.6432 36.0163 39.1895 36.0143 36.7358 36.015Z" fill="#23304C"/>
</g>
<defs>
<clipPath id="clip0_188_2339">
<rect width="216" height="64" fill="white"/>
</clipPath>
</defs>
</svg>
