<svg width="42" height="40" viewBox="0 0 42 40" fill="none" xmlns="http://www.w3.org/2000/svg">
<path fill-rule="evenodd" clip-rule="evenodd" d="M9.17749 0H32.8225C34.5787 0 36.0419 8.72263e-08 37.2022 0.156098C38.429 0.32 39.5367 0.682927 40.4255 1.57073C41.3163 2.46049 41.6796 3.56683 41.8437 4.79024C42 5.95122 42 7.41463 42 9.16683V9.36976C42 11.122 42 12.5854 41.8437 13.7444C41.6796 14.9698 41.3163 16.0761 40.4255 16.9639C39.5367 17.8537 38.429 18.2166 37.2022 18.3805C36.0419 18.5366 34.5787 18.5366 32.8225 18.5366H9.17749C7.42326 18.5366 5.95814 18.5366 4.79777 18.3805C3.57098 18.2166 2.46335 17.8537 1.57451 16.9639C0.683721 16.0761 0.320372 14.9698 0.156279 13.7444C8.73277e-08 12.5854 0 11.122 0 9.36976V9.16683C0 7.41463 8.73277e-08 5.95122 0.156279 4.7922C0.320372 3.56683 0.683721 2.46049 1.57256 1.57268C2.46335 0.682927 3.57098 0.32 4.79581 0.156098C5.95814 8.72263e-08 7.4213 0 9.17749 0ZM5.18651 3.05756C4.28595 3.17854 3.89916 3.38732 3.64521 3.64293C3.39126 3.89854 3.18223 4.28098 3.05916 5.18049C2.93414 6.12293 2.93023 7.38732 2.93023 9.26829C2.93023 11.1493 2.93414 12.4137 3.06112 13.3561C3.18223 14.2556 3.39126 14.642 3.64716 14.8956C3.90307 15.1493 4.28595 15.358 5.18651 15.481C6.13005 15.6039 7.39591 15.6098 9.27907 15.6098H32.7209C34.6041 15.6098 35.87 15.6059 36.8135 15.479C37.714 15.358 38.1008 15.1493 38.3548 14.8937C38.6087 14.6381 38.8178 14.2556 38.9408 13.3561C39.0659 12.4137 39.0698 11.1493 39.0698 9.26829C39.0698 7.38732 39.0659 6.12293 38.9389 5.18049C38.8178 4.28098 38.6087 3.89463 38.3528 3.64098C38.0969 3.38732 37.714 3.17854 36.8135 3.05561C35.87 2.93268 34.6041 2.92683 32.7209 2.92683H9.27907C7.39591 2.92683 6.13005 2.93073 5.18651 3.05756ZM7.81395 9.26829C7.81395 8.88017 7.96831 8.50795 8.24308 8.2335C8.51784 7.95906 8.8905 7.80488 9.27907 7.80488H13.186C13.3784 7.80488 13.569 7.84273 13.7467 7.91627C13.9245 7.98982 14.086 8.09761 14.222 8.2335C14.3581 8.36939 14.466 8.53072 14.5396 8.70827C14.6133 8.88582 14.6512 9.07611 14.6512 9.26829C14.6512 9.46047 14.6133 9.65077 14.5396 9.82832C14.466 10.0059 14.3581 10.1672 14.222 10.3031C14.086 10.439 13.9245 10.5468 13.7467 10.6203C13.569 10.6939 13.3784 10.7317 13.186 10.7317H9.27907C8.8905 10.7317 8.51784 10.5775 8.24308 10.3031C7.96831 10.0286 7.81395 9.65641 7.81395 9.26829ZM17.5814 9.26829C17.5814 8.88017 17.7358 8.50795 18.0105 8.2335C18.2853 7.95906 18.6579 7.80488 19.0465 7.80488H32.7209C33.1095 7.80488 33.4822 7.95906 33.7569 8.2335C34.0317 8.50795 34.186 8.88017 34.186 9.26829C34.186 9.65641 34.0317 10.0286 33.7569 10.3031C33.4822 10.5775 33.1095 10.7317 32.7209 10.7317H19.0465C18.6579 10.7317 18.2853 10.5775 18.0105 10.3031C17.7358 10.0286 17.5814 9.65641 17.5814 9.26829ZM9.17749 21.4634H32.8225C34.5787 21.4634 36.0419 21.4634 37.2022 21.6195C38.429 21.7834 39.5367 22.1463 40.4255 23.0361C41.3163 23.9239 41.6796 25.0302 41.8437 26.2556C42 27.4146 42 28.8761 42 30.6302V30.8332C42 32.5873 42 34.0488 41.8437 35.2078C41.6796 36.4332 41.3163 37.5395 40.4255 38.4273C39.5367 39.3171 38.429 39.68 37.2022 39.8439C36.0419 40 34.5787 40 32.8225 40H9.17749C7.42326 40 5.95814 40 4.79777 39.8439C3.57098 39.68 2.46335 39.3171 1.57451 38.4273C0.683721 37.5395 0.320372 36.4332 0.156279 35.2078C8.73277e-08 34.0488 0 32.5873 0 30.8332V30.6302C0 28.8761 8.73277e-08 27.4146 0.156279 26.2556C0.320372 25.0302 0.683721 23.9239 1.57256 23.0361C2.46335 22.1463 3.57098 21.7834 4.79581 21.6195C5.95814 21.4634 7.42326 21.4634 9.17749 21.4634ZM5.18651 24.519C4.28595 24.642 3.89916 24.8507 3.64521 25.1044C3.39126 25.358 3.18223 25.7444 3.05916 26.6459C2.93414 27.5863 2.93023 28.8507 2.93023 30.7317C2.93023 32.6127 2.93414 33.8771 3.06112 34.8195C3.18223 35.719 3.39126 36.1054 3.64716 36.359C3.90307 36.6127 4.28595 36.8215 5.18651 36.9444C6.13005 37.0693 7.39591 37.0732 9.27907 37.0732H32.7209C34.6041 37.0732 35.87 37.0693 36.8135 36.9424C37.714 36.8215 38.1008 36.6127 38.3548 36.3571C38.6087 36.1015 38.8178 35.719 38.9408 34.8195C39.0659 33.8771 39.0698 32.6127 39.0698 30.7317C39.0698 28.8507 39.0659 27.5863 38.9389 26.6439C38.8178 25.7444 38.6087 25.358 38.3528 25.1044C38.0969 24.8507 37.714 24.642 36.8135 24.519C35.87 24.3961 34.6041 24.3902 32.7209 24.3902H9.27907C7.39591 24.3902 6.13005 24.3941 5.18651 24.519ZM7.81395 30.7317C7.81395 30.3436 7.96831 29.9714 8.24308 29.6969C8.51784 29.4225 8.8905 29.2683 9.27907 29.2683H13.186C13.5746 29.2683 13.9473 29.4225 14.222 29.6969C14.4968 29.9714 14.6512 30.3436 14.6512 30.7317C14.6512 31.1198 14.4968 31.4921 14.222 31.7665C13.9473 32.0409 13.5746 32.1951 13.186 32.1951H9.27907C8.8905 32.1951 8.51784 32.0409 8.24308 31.7665C7.96831 31.4921 7.81395 31.1198 7.81395 30.7317ZM17.5814 30.7317C17.5814 30.3436 17.7358 29.9714 18.0105 29.6969C18.2853 29.4225 18.6579 29.2683 19.0465 29.2683H32.7209C33.1095 29.2683 33.4822 29.4225 33.7569 29.6969C34.0317 29.9714 34.186 30.3436 34.186 30.7317C34.186 31.1198 34.0317 31.4921 33.7569 31.7665C33.4822 32.0409 33.1095 32.1951 32.7209 32.1951H19.0465C18.6579 32.1951 18.2853 32.0409 18.0105 31.7665C17.7358 31.4921 17.5814 31.1198 17.5814 30.7317Z" fill="#23304C"/>
</svg>
